<svg width="259" height="254" viewBox="0 0 259 254" fill="none" xmlns="http://www.w3.org/2000/svg">
<g clip-path="url(#clip0)">
<path d="M16.4201 134.133C16.4201 134.133 24.1485 175.673 63.2528 198.194C102.357 220.714 150.973 215.365 190.408 211.997C229.908 208.695 256.528 181.947 256 147.869C255.406 113.725 224.03 108.442 202.033 72.845C179.971 37.248 179.509 24.5018 141.66 6.34009C103.81 -11.8877 52.3538 10.6989 30.3576 55.0796C8.29536 99.5263 16.4201 134.133 16.4201 134.133Z" fill="#4AA3C7"/>
<path opacity="0.7" d="M16.4201 134.133C16.4201 134.133 24.1485 175.673 63.2528 198.194C102.357 220.714 150.973 215.365 190.408 211.997C229.908 208.695 256.528 181.947 256 147.869C255.406 113.725 224.03 108.442 202.033 72.845C179.971 37.248 179.509 24.5018 141.66 6.34009C103.81 -11.8877 52.3538 10.6989 30.3576 55.0796C8.29536 99.5263 16.4201 134.133 16.4201 134.133Z" fill="white"/>
<path d="M109.689 254C166.307 254 212.206 250.688 212.206 246.603C212.206 242.518 166.307 239.206 109.689 239.206C53.0707 239.206 7.17236 242.518 7.17236 246.603C7.17236 250.688 53.0707 254 109.689 254Z" fill="#4AA3C7"/>
<path opacity="0.5" d="M109.689 254C166.307 254 212.206 250.688 212.206 246.603C212.206 242.518 166.307 239.206 109.689 239.206C53.0707 239.206 7.17236 242.518 7.17236 246.603C7.17236 250.688 53.0707 254 109.689 254Z" fill="white"/>
<path d="M239.486 226.13H85.1167C81.4837 226.13 78.5112 223.158 78.5112 219.526V15.9163C78.5112 12.2839 81.4837 9.31201 85.1167 9.31201H239.486C243.119 9.31201 246.092 12.2839 246.092 15.9163V219.592C246.092 223.224 243.119 226.13 239.486 226.13Z" stroke="#263238" stroke-width="1.0229" stroke-miterlimit="10" stroke-linecap="round" stroke-linejoin="round"/>
<path d="M148.86 68.8824V69.5429H148.199" stroke="#263238" stroke-width="1.0229" stroke-linecap="round" stroke-linejoin="round"/>
<path d="M146.878 69.5429H107.576" stroke="#263238" stroke-width="1.0229" stroke-linecap="round" stroke-linejoin="round" stroke-dasharray="2.02 2.02"/>
<path d="M106.849 69.5429H106.188V68.8824" stroke="#263238" stroke-width="1.0229" stroke-linecap="round" stroke-linejoin="round"/>
<path d="M106.188 67.5616V37.0499" stroke="#263238" stroke-width="1.0229" stroke-linecap="round" stroke-linejoin="round" stroke-dasharray="1.97 1.97"/>
<path d="M106.188 36.3895V35.7291H106.849" stroke="#263238" stroke-width="1.0229" stroke-linecap="round" stroke-linejoin="round"/>
<path d="M108.236 35.7291H147.539" stroke="#263238" stroke-width="1.0229" stroke-linecap="round" stroke-linejoin="round" stroke-dasharray="2.02 2.02"/>
<path d="M148.199 35.7291H148.86V36.3895" stroke="#263238" stroke-width="1.0229" stroke-linecap="round" stroke-linejoin="round"/>
<path d="M148.86 37.7103V68.222" stroke="#263238" stroke-width="1.0229" stroke-linecap="round" stroke-linejoin="round" stroke-dasharray="1.97 1.97"/>
<path d="M141.99 41.0786H112.992V64.1274H141.99V41.0786Z" fill="white" stroke="#263238" stroke-width="1.0229" stroke-miterlimit="10" stroke-linecap="round" stroke-linejoin="round"/>
<path d="M111.34 39.4275L101.366 31.7005" stroke="#263238" stroke-width="1.0229" stroke-miterlimit="10" stroke-linecap="round" stroke-linejoin="round"/>
<path d="M144.038 65.3162L152.559 72.7129" stroke="#263238" stroke-width="1.0229" stroke-miterlimit="10" stroke-linecap="round" stroke-linejoin="round"/>
<path d="M100.97 34.2761L100.64 30.974H104.074" stroke="#263238" stroke-width="1.0229" stroke-miterlimit="10" stroke-linecap="round" stroke-linejoin="round"/>
<path d="M152.823 69.6089L153.417 73.1753L149.256 73.3073" stroke="#263238" stroke-width="1.0229" stroke-miterlimit="10" stroke-linecap="round" stroke-linejoin="round"/>
<path d="M177.99 156.455H163.92V161.54H177.99V156.455Z" fill="#263238"/>
<path d="M183.736 159.031L174.687 153.813V164.248L183.736 159.031Z" fill="#263238"/>
<path d="M153.747 202.553H121.315C118.805 202.553 116.757 200.505 116.757 197.996V126.009C116.757 123.5 118.805 121.452 121.315 121.452H153.747C156.257 121.452 158.305 123.5 158.305 126.009V197.996C158.305 200.505 156.257 202.553 153.747 202.553Z" fill="#263238" stroke="#263238" stroke-width="0.8292" stroke-miterlimit="10" stroke-linecap="round" stroke-linejoin="round"/>
<path d="M156.456 126.934H118.606V197.732H156.456V126.934Z" fill="white" stroke="#263238" stroke-width="0.8292" stroke-miterlimit="10" stroke-linecap="round" stroke-linejoin="round"/>
<path d="M149.454 213.714L152.36 202.487C152.691 201.298 152.823 200.043 152.823 198.788V185.316C152.889 185.118 152.889 184.985 152.889 184.787C152.889 183.599 151.832 182.674 150.511 182.674C149.784 182.674 149.19 182.938 148.727 183.334C148.595 182.212 147.604 181.353 146.349 181.353C145.491 181.353 144.764 181.749 144.302 182.344C144.169 181.287 143.179 180.429 141.924 180.429C141.065 180.429 140.338 180.825 139.876 181.419C139.876 179.636 139.876 171.05 139.546 170.39C138.687 168.145 134.261 169.135 135.054 171.579V184.391C135.054 184.391 135.054 191.127 135.054 191.392C135.054 190.005 133.997 188.155 133.601 186.835C133.204 185.58 132.94 184.193 132.148 183.07C130.76 181.155 128.382 182.212 128.515 184.193C128.647 185.976 129.902 187.363 130.628 188.948C131.883 191.92 131.157 195.024 132.346 197.996C132.676 198.854 134.922 202.487 135.715 203.477C136.441 204.468 137.234 207.11 137.234 207.11L136.111 213.648" fill="white"/>
<path d="M149.454 213.714L152.36 202.487C152.691 201.298 152.823 200.043 152.823 198.788V185.316C152.889 185.118 152.889 184.985 152.889 184.787C152.889 183.599 151.832 182.674 150.511 182.674C149.784 182.674 149.19 182.938 148.727 183.334C148.595 182.212 147.604 181.353 146.349 181.353C145.491 181.353 144.764 181.749 144.302 182.344C144.169 181.287 143.179 180.428 141.924 180.428C141.065 180.428 140.338 180.825 139.876 181.419C139.876 179.636 139.876 171.05 139.546 170.39C138.687 168.145 134.261 169.135 135.054 171.579V184.391C135.054 184.391 135.054 191.127 135.054 191.392C135.054 190.005 133.997 188.155 133.601 186.835C133.204 185.58 132.94 184.193 132.148 183.07C130.76 181.155 128.382 182.212 128.515 184.193C128.647 185.976 129.902 187.363 130.628 188.948C131.883 191.92 131.157 195.024 132.346 197.996C132.676 198.854 134.922 202.487 135.715 203.477C136.441 204.468 137.234 207.11 137.234 207.11L136.111 213.648" stroke="#263238" stroke-width="1.0229" stroke-miterlimit="10" stroke-linecap="round" stroke-linejoin="round"/>
<path d="M137.564 163.588V167.286" stroke="#263238" stroke-width="1.0229" stroke-miterlimit="10" stroke-linecap="round" stroke-linejoin="round"/>
<path d="M141.726 170.72H144.698" stroke="#263238" stroke-width="1.0229" stroke-miterlimit="10" stroke-linecap="round" stroke-linejoin="round"/>
<path d="M129.241 170.72H132.214" stroke="#263238" stroke-width="1.0229" stroke-miterlimit="10" stroke-linecap="round" stroke-linejoin="round"/>
<path d="M133.402 166.824L134.525 168.673" stroke="#263238" stroke-width="1.0229" stroke-miterlimit="10" stroke-linecap="round" stroke-linejoin="round"/>
<path d="M140.338 168.871L141.924 166.824" stroke="#263238" stroke-width="1.0229" stroke-miterlimit="10" stroke-linecap="round" stroke-linejoin="round"/>
<path d="M155.135 154.342H119.994V158.7H155.135V154.342Z" stroke="#263238" stroke-width="1.0229" stroke-miterlimit="10" stroke-linecap="round" stroke-linejoin="round"/>
<path d="M138.027 130.764H121.183V150.841H138.027V130.764Z" stroke="#263238" stroke-width="1.0229" stroke-miterlimit="10" stroke-linecap="round" stroke-linejoin="round"/>
<path d="M121.183 130.764L138.027 150.841" stroke="#263238" stroke-width="1.0229" stroke-miterlimit="10" stroke-linecap="round" stroke-linejoin="round"/>
<path d="M120.72 189.675V161.012H154.87V189.476" stroke="#263238" stroke-width="1.0229" stroke-miterlimit="10" stroke-linecap="round" stroke-linejoin="round"/>
<path d="M223.633 202.553H191.2C188.69 202.553 186.643 200.505 186.643 197.996V126.009C186.643 123.5 188.69 121.452 191.2 121.452H223.633C226.143 121.452 228.191 123.5 228.191 126.009V197.996C228.257 200.505 226.209 202.553 223.633 202.553Z" fill="#263238" stroke="#263238" stroke-width="0.8292" stroke-miterlimit="10" stroke-linecap="round" stroke-linejoin="round"/>
<path d="M226.341 126.934H188.492V197.732H226.341V126.934Z" fill="white" stroke="#263238" stroke-width="0.8292" stroke-miterlimit="10" stroke-linecap="round" stroke-linejoin="round"/>
<path d="M224.69 130.302H190.474V167.748H224.69V130.302Z" stroke="#263238" stroke-width="1.0229" stroke-miterlimit="10" stroke-linecap="round" stroke-linejoin="round"/>
<path d="M190.474 171.183H224.69" stroke="#263238" stroke-width="1.0229" stroke-miterlimit="10" stroke-linecap="round" stroke-linejoin="round"/>
<path d="M190.474 173.956H224.69" stroke="#263238" stroke-width="1.0229" stroke-miterlimit="10" stroke-linecap="round" stroke-linejoin="round"/>
<path d="M190.474 176.73H224.69" stroke="#263238" stroke-width="1.0229" stroke-miterlimit="10" stroke-linecap="round" stroke-linejoin="round"/>
<path d="M190.474 179.504H224.69" stroke="#263238" stroke-width="1.0229" stroke-miterlimit="10" stroke-linecap="round" stroke-linejoin="round"/>
<path d="M190.474 182.278H224.69" stroke="#263238" stroke-width="1.0229" stroke-miterlimit="10" stroke-linecap="round" stroke-linejoin="round"/>
<path d="M190.474 185.052H224.69" stroke="#263238" stroke-width="1.0229" stroke-miterlimit="10" stroke-linecap="round" stroke-linejoin="round"/>
<path d="M190.474 187.825H224.69" stroke="#263238" stroke-width="1.0229" stroke-miterlimit="10" stroke-linecap="round" stroke-linejoin="round"/>
<path d="M190.474 167.748L224.69 130.302" stroke="#263238" stroke-width="1.0229" stroke-miterlimit="10" stroke-linecap="round" stroke-linejoin="round"/>
<path d="M223.633 109.433H191.2C188.69 109.433 186.643 107.385 186.643 104.876V32.8892C186.643 30.3796 188.69 28.3323 191.2 28.3323H223.633C226.143 28.3323 228.191 30.3796 228.191 32.8892V104.876C228.257 107.385 226.209 109.433 223.633 109.433Z" fill="#263238" stroke="#263238" stroke-width="0.8292" stroke-miterlimit="10" stroke-linecap="round" stroke-linejoin="round"/>
<path d="M226.341 33.8138H188.492V104.612H226.341V33.8138Z" fill="white" stroke="#263238" stroke-width="0.8292" stroke-miterlimit="10" stroke-linecap="round" stroke-linejoin="round"/>
<path d="M144.764 119.009V97.4128H175.149" stroke="#263238" stroke-width="1.0229" stroke-linecap="round" stroke-linejoin="round"/>
<path d="M174.159 100.781L179.971 97.4129L174.159 94.0447V100.781Z" fill="#263238"/>
<path d="M206.657 118.414V101.838" stroke="#263238" stroke-width="1.0229" stroke-linecap="round" stroke-linejoin="round"/>
<path d="M210.026 102.828L206.657 97.0166L203.289 102.828H210.026Z" fill="#263238"/>
<path d="M191.002 209.95H206.327" stroke="#263238" stroke-width="1.0229" stroke-miterlimit="10" stroke-linecap="round" stroke-linejoin="round"/>
<path d="M191.002 213.384H206.327" stroke="#263238" stroke-width="1.0229" stroke-miterlimit="10" stroke-linecap="round" stroke-linejoin="round"/>
<path d="M191.002 216.818H206.327" stroke="#263238" stroke-width="1.0229" stroke-miterlimit="10" stroke-linecap="round" stroke-linejoin="round"/>
<path d="M153.879 209.95H169.204" stroke="#263238" stroke-width="1.0229" stroke-miterlimit="10" stroke-linecap="round" stroke-linejoin="round"/>
<path d="M153.879 213.384H169.204" stroke="#263238" stroke-width="1.0229" stroke-miterlimit="10" stroke-linecap="round" stroke-linejoin="round"/>
<path d="M153.879 216.818H169.204" stroke="#263238" stroke-width="1.0229" stroke-miterlimit="10" stroke-linecap="round" stroke-linejoin="round"/>
<path d="M149.652 104.281H164.977" stroke="#263238" stroke-width="1.0229" stroke-miterlimit="10" stroke-linecap="round" stroke-linejoin="round"/>
<path d="M149.652 107.716H164.977" stroke="#263238" stroke-width="1.0229" stroke-miterlimit="10" stroke-linecap="round" stroke-linejoin="round"/>
<path d="M149.652 111.15H164.977" stroke="#263238" stroke-width="1.0229" stroke-miterlimit="10" stroke-linecap="round" stroke-linejoin="round"/>
<path d="M161.146 62.5424H176.47" stroke="#263238" stroke-width="1.0229" stroke-miterlimit="10" stroke-linecap="round" stroke-linejoin="round"/>
<path d="M161.146 65.9766H176.47" stroke="#263238" stroke-width="1.0229" stroke-miterlimit="10" stroke-linecap="round" stroke-linejoin="round"/>
<path d="M161.146 69.4108H176.47" stroke="#263238" stroke-width="1.0229" stroke-miterlimit="10" stroke-linecap="round" stroke-linejoin="round"/>
<path d="M105.99 74.364H121.314" stroke="#263238" stroke-width="1.0229" stroke-miterlimit="10" stroke-linecap="round" stroke-linejoin="round"/>
<path d="M105.99 77.8643H121.314" stroke="#263238" stroke-width="1.0229" stroke-miterlimit="10" stroke-linecap="round" stroke-linejoin="round"/>
<path d="M105.99 81.2985H121.314" stroke="#263238" stroke-width="1.0229" stroke-miterlimit="10" stroke-linecap="round" stroke-linejoin="round"/>
<path d="M31.2826 125.217C31.2826 125.217 31.2826 122.377 27.2533 118.348C23.224 114.32 20.6478 112.074 20.6478 112.074C20.6478 112.074 18.6662 118.679 22.3653 122.641C26.0643 126.67 31.2166 130.368 31.2166 130.368V125.217H31.2826Z" fill="#4AA3C7"/>
<path d="M25.4696 143.048C25.4696 143.048 25.4696 140.209 21.4403 136.18C17.411 132.151 14.8349 129.906 14.8349 129.906C14.8349 129.906 12.8532 136.51 16.5523 140.473C20.2513 144.501 25.4036 148.2 25.4036 148.2V143.048H25.4696Z" fill="#4AA3C7"/>
<path d="M31.0183 130.104C31.0183 130.104 31.3486 127.264 35.7082 123.698C40.1339 120.132 42.9081 118.15 42.9081 118.15C42.9081 118.15 44.2292 124.887 40.0678 128.453C35.9724 132.019 30.4238 135.189 30.4238 135.189L31.0183 130.104Z" fill="#4AA3C7"/>
<path d="M24.0165 151.172C24.0165 151.172 24.611 148.398 29.3669 145.294C34.1228 142.19 37.0953 140.539 37.0953 140.539C37.0953 140.539 37.6898 147.407 33.1981 150.511C28.7064 153.615 22.8936 156.191 22.8936 156.191L24.0165 151.172Z" fill="#4AA3C7"/>
<path d="M25.3374 174.154C25.3374 174.154 25.3374 171.315 29.3667 167.286C33.3961 163.257 35.9722 161.012 35.9722 161.012C35.9722 161.012 37.9538 167.616 34.2548 171.579C30.5557 175.607 25.4035 179.306 25.4035 179.306V174.154H25.3374Z" fill="#4AA3C7"/>
<path d="M25.2713 179.768C25.2713 179.768 25.6676 176.928 22.2988 172.437C18.93 167.88 16.6842 165.305 16.6842 165.305C16.6842 165.305 13.7778 171.513 16.8823 176.004C19.9869 180.495 24.5447 184.919 24.5447 184.919L25.2713 179.768Z" fill="#4AA3C7"/>
<path d="M21.3081 196.411C21.3081 196.411 21.3081 193.571 25.3374 189.542C29.3668 185.514 31.9429 183.268 31.9429 183.268C31.9429 183.268 33.9245 189.873 30.2255 193.835C26.5264 197.864 21.3742 201.562 21.3742 201.562V196.411H21.3081Z" fill="#4AA3C7"/>
<path d="M24.0163 211.469C24.0163 211.469 23.2897 208.695 26.1301 203.808C28.9704 198.92 30.886 196.081 30.886 196.081C30.886 196.081 34.519 201.958 31.8768 206.713C29.3007 211.535 25.2714 216.422 25.2714 216.422L24.0163 211.469Z" fill="#4AA3C7"/>
<path d="M31.6788 124.49C31.4146 127.528 31.0843 130.698 30.5559 133.34C28.9706 141.529 25.0073 146.813 23.422 154.143C21.8367 161.54 26.3945 171.05 25.1394 180.495C23.9504 190.005 20.2514 195.222 21.3083 201.562C22.3651 207.902 27.9137 225.007 27.9137 225.007" stroke="#263238" stroke-width="1.0348" stroke-miterlimit="10" stroke-linecap="round" stroke-linejoin="round"/>
<path d="M31.0181 132.019L35.3116 128.717" stroke="#263238" stroke-width="1.0348" stroke-miterlimit="10" stroke-linecap="round" stroke-linejoin="round"/>
<path d="M31.2162 128.189L29.3667 124.953" stroke="#263238" stroke-width="1.0348" stroke-miterlimit="10" stroke-linecap="round" stroke-linejoin="round"/>
<path d="M23.686 153.879C23.686 153.879 27.319 151.172 31.0181 148.464" stroke="#263238" stroke-width="1.0348" stroke-miterlimit="10" stroke-linecap="round" stroke-linejoin="round"/>
<path d="M25.4698 148.2C25.4698 148.2 22.4313 142.322 19.0625 138.359" stroke="#263238" stroke-width="1.0348" stroke-miterlimit="10" stroke-linecap="round" stroke-linejoin="round"/>
<path d="M25.4697 178.249C25.4697 178.249 28.3101 172.701 33.1981 167.946" stroke="#263238" stroke-width="1.0348" stroke-miterlimit="10" stroke-linecap="round" stroke-linejoin="round"/>
<path d="M24.743 182.212C24.743 182.212 22.9595 177.919 20.8457 174.815C18.732 171.711 18.4678 171.315 18.4678 171.315" stroke="#263238" stroke-width="1.0348" stroke-miterlimit="10" stroke-linecap="round" stroke-linejoin="round"/>
<path d="M21.3081 201.628C21.3081 201.628 22.7613 197.93 24.5448 195.024C26.3283 192.118 28.7723 189.476 28.7723 189.476" stroke="#263238" stroke-width="1.0348" stroke-miterlimit="10" stroke-linecap="round" stroke-linejoin="round"/>
<path d="M25.2715 216.422C25.2715 216.422 24.8752 212.987 26.3284 210.082C27.8477 207.176 29.5651 203.345 30.2256 201.892" stroke="#263238" stroke-width="1.0348" stroke-miterlimit="10" stroke-linecap="round" stroke-linejoin="round"/>
<path d="M5.05876 163.389C5.05876 163.389 4.72849 161.606 6.84224 158.634C8.88993 155.662 10.2771 153.945 10.2771 153.945C10.2771 153.945 12.2587 157.842 10.3431 160.748C8.42755 163.654 5.65325 166.56 5.65325 166.56L5.05876 163.389Z" fill="#4AA3C7"/>
<path d="M10.6735 173.956C10.6735 173.956 10.3432 172.173 12.457 169.201C14.5047 166.229 15.8918 164.512 15.8918 164.512C15.8918 164.512 17.8735 168.409 15.9579 171.315C14.0423 174.22 11.268 177.126 11.268 177.126L10.6735 173.956Z" fill="#4AA3C7"/>
<path d="M5.78538 166.427C5.78538 166.427 5.25694 164.71 2.15238 162.927C-1.01824 161.21 -2.99988 160.219 -2.99988 160.219C-2.99988 160.219 -3.06593 164.578 -0.0934787 166.361C2.87898 168.145 6.64409 169.531 6.64409 169.531L5.78538 166.427Z" fill="#4AA3C7"/>
<path d="M12.4568 178.91C12.4568 178.91 11.7962 177.192 8.49349 175.806C5.19076 174.419 3.14307 173.626 3.14307 173.626C3.14307 173.626 3.53939 177.985 6.64396 179.438C9.74852 180.891 13.7118 181.881 13.7118 181.881L12.4568 178.91Z" fill="#4AA3C7"/>
<path d="M14.1081 193.439C14.1081 193.439 13.7779 191.656 10.8715 189.542C7.89902 187.495 6.04949 186.306 6.04949 186.306C6.04949 186.306 5.52106 190.665 8.29535 192.778C11.0696 194.892 14.7026 196.675 14.7026 196.675L14.1081 193.439Z" fill="#4AA3C7"/>
<path d="M14.7687 196.939C14.7687 196.939 14.1742 195.222 15.8256 191.986C17.477 188.75 18.5999 186.901 18.5999 186.901C18.5999 186.901 21.11 190.467 19.6568 193.637C18.2036 196.807 15.8256 200.043 15.8256 200.043L14.7687 196.939Z" fill="#4AA3C7"/>
<path d="M19.7888 211.403C19.7888 211.403 19.9869 209.619 22.8273 207.374C25.6676 205.128 27.4511 203.874 27.4511 203.874C27.4511 203.874 28.2438 208.166 25.6016 210.412C22.9594 212.657 19.4585 214.639 19.4585 214.639L19.7888 211.403Z" fill="#4AA3C7"/>
<path d="M19.0623 206.978C19.0623 206.978 18.732 205.194 15.8256 203.081C12.8531 201.034 11.0036 199.845 11.0036 199.845C11.0036 199.845 10.4752 204.204 13.2494 206.317C16.0237 208.431 19.6567 210.214 19.6567 210.214L19.0623 206.978Z" fill="#4AA3C7"/>
<path d="M18.9965 216.686C18.9965 216.686 19.1286 214.903 16.8167 212.129C14.5048 209.355 12.9855 207.77 12.9855 207.77C12.9855 207.77 11.3341 211.799 13.5139 214.573C15.6277 217.28 18.7323 219.922 18.7323 219.922L18.9965 216.686Z" fill="#4AA3C7"/>
<path d="M4.79443 162.993C5.25682 164.908 5.85131 166.824 6.4458 168.409C8.29533 173.362 11.3999 176.268 13.1834 180.693C14.9668 185.118 13.1834 191.59 14.9668 197.401C16.7503 203.213 19.6567 206.119 19.6567 210.214C19.6567 214.308 18.0714 225.668 18.0714 225.668" stroke="#263238" stroke-width="1.0348" stroke-miterlimit="10" stroke-linecap="round" stroke-linejoin="round"/>
<path d="M5.98334 167.616L2.94482 166.031" stroke="#263238" stroke-width="1.0348" stroke-miterlimit="10" stroke-linecap="round" stroke-linejoin="round"/>
<path d="M5.45508 165.239L6.24773 163.059" stroke="#263238" stroke-width="1.0348" stroke-miterlimit="10" stroke-linecap="round" stroke-linejoin="round"/>
<path d="M12.9853 180.561C12.9853 180.561 10.4091 179.24 7.83301 177.985" stroke="#263238" stroke-width="1.0348" stroke-miterlimit="10" stroke-linecap="round" stroke-linejoin="round"/>
<path d="M11.2017 177.192C11.2017 177.192 12.4567 173.164 14.1741 170.324" stroke="#263238" stroke-width="1.0348" stroke-miterlimit="10" stroke-linecap="round" stroke-linejoin="round"/>
<path d="M14.5045 196.015C14.5045 196.015 12.1265 192.844 8.55957 190.401" stroke="#263238" stroke-width="1.0348" stroke-miterlimit="10" stroke-linecap="round" stroke-linejoin="round"/>
<path d="M15.3633 198.458C15.3633 198.458 16.0238 195.552 17.0146 193.373C18.0055 191.193 18.1376 190.929 18.1376 190.929" stroke="#263238" stroke-width="1.0348" stroke-miterlimit="10" stroke-linecap="round" stroke-linejoin="round"/>
<path d="M19.4585 213.318C19.4585 213.318 21.5062 210.808 22.7612 209.883C24.0163 208.959 24.875 208.034 24.875 208.034" stroke="#263238" stroke-width="1.0348" stroke-miterlimit="10" stroke-linecap="round" stroke-linejoin="round"/>
<path d="M19.591 210.214C19.591 210.214 18.27 208.1 16.8168 206.449C15.3636 204.798 13.5801 203.477 13.5801 203.477" stroke="#263238" stroke-width="1.0348" stroke-miterlimit="10" stroke-linecap="round" stroke-linejoin="round"/>
<path d="M18.732 219.922C18.732 219.922 18.5999 217.743 17.3449 216.091C16.0898 214.44 14.5706 212.195 13.9761 211.336" stroke="#263238" stroke-width="1.0348" stroke-miterlimit="10" stroke-linecap="round" stroke-linejoin="round"/>
<path d="M34.0568 245.414H11.8625C10.7396 245.414 9.88086 244.49 9.88086 243.433V223.752H36.0385V243.433C36.0385 244.49 35.1137 245.414 34.0568 245.414Z" fill="#263238"/>
<path d="M35.8401 227.121H9.8807C8.75777 227.121 7.83301 226.196 7.83301 225.073C7.83301 223.951 8.75777 223.026 9.8807 223.026H35.8401C36.9631 223.026 37.8878 223.951 37.8878 225.073C37.8878 226.196 36.9631 227.121 35.8401 227.121Z" fill="#263238"/>
<path d="M43.8987 238.81C43.8987 238.81 42.4455 244.292 42.4455 245.679C42.4455 247.066 42.1152 247.99 45.0877 248.585C48.0601 249.179 50.0418 248.783 50.5041 247.462C50.9665 246.075 51.2968 239.14 51.2968 239.14L44.0308 237.754L43.8987 238.81Z" fill="white" stroke="#263238" stroke-width="1.0348" stroke-miterlimit="10" stroke-linecap="round" stroke-linejoin="round"/>
<path d="M50.5703 247.396C50.6363 247.198 50.7024 246.867 50.7685 246.405C47.6639 246.471 44.0309 246.009 42.5116 245.745C42.5116 247.066 42.2474 247.924 45.1538 248.518C48.1263 249.113 50.1079 248.783 50.5703 247.396Z" fill="white" stroke="#263238" stroke-width="1.0348" stroke-miterlimit="10" stroke-linecap="round" stroke-linejoin="round"/>
<path d="M113.982 239.339C113.982 239.339 116.294 240.131 119.663 241.188C123.032 242.244 129.836 243.367 130.496 243.499C131.157 243.631 131.157 245.018 130.628 245.547C130.034 246.141 127.061 247.858 123.494 248.783C119.927 249.707 107.839 250.5 106.782 249.839C105.924 249.245 106.188 243.631 106.584 242.377C106.849 241.056 113.982 239.339 113.982 239.339Z" fill="white" stroke="#263238" stroke-width="1.0348" stroke-miterlimit="10" stroke-linecap="round" stroke-linejoin="round"/>
<path d="M130.628 245.547C131.024 245.15 131.156 244.424 130.958 243.962C128.646 245.811 123.957 247.858 119.201 248.32C114.445 248.783 108.236 248.386 106.254 248.254C106.32 249.047 106.518 249.641 106.716 249.839C107.773 250.5 119.861 249.707 123.428 248.783C126.995 247.858 130.034 246.141 130.628 245.547Z" fill="white" stroke="#263238" stroke-width="1.0348" stroke-miterlimit="10" stroke-linecap="round" stroke-linejoin="round"/>
<path d="M58.2323 138.822C58.2323 138.822 56.2506 150.907 57.7699 157.578C57.7699 157.578 54.8635 184.127 54.4011 195.949C54.4011 195.949 48.1259 216.686 47.2672 223.158C46.3425 229.63 43.8984 238.81 43.8984 238.81C43.8984 238.81 45.2195 239.735 48.3902 240.395C51.4947 241.056 51.9571 238.612 51.9571 238.612C51.9571 238.612 69.1313 199.119 70.5184 193.307C71.8395 187.495 76.3312 166.758 76.3312 166.758L94.8926 200.704C94.8926 200.704 95.8173 212.327 98.4595 218.997C101.168 225.668 106.254 244.226 106.254 244.226C106.254 244.226 109.623 244.424 112.265 243.565C114.973 242.641 114.973 241.32 114.973 241.32C114.973 241.32 110.944 226.394 110.944 221.441C110.944 216.554 109.359 199.779 108.236 195.09C107.113 190.401 99.5164 165.833 98.3935 163.191C97.2705 160.484 94.8265 152.03 94.8265 152.03L93.2412 138.888C93.2412 138.822 74.0854 144.171 58.2323 138.822Z" fill="#263238" stroke="#263238" stroke-width="1.0348" stroke-miterlimit="10" stroke-linecap="round" stroke-linejoin="round"/>
<path d="M72.3681 81.8929C72.3681 81.8929 71.3113 79.6474 71.3113 78.3266C71.3113 76.9397 70.6507 70.4675 70.6507 70.4675C70.6507 70.4675 80.5589 52.5039 83.3332 49.0697C86.0414 45.6355 89.3442 43.0598 89.3442 43.0598C89.3442 43.0598 96.0157 41.6729 97.4028 41.6729C98.79 41.6729 100.309 41.0125 100.309 40.154C100.309 39.2954 98.0634 39.4935 96.7423 39.4935C95.3551 39.4935 93.6377 38.3048 93.6377 38.3048C93.6377 38.3048 95.8836 31.9647 96.5441 29.389C96.8744 28.0682 98.0634 25.2944 97.2047 25.2944C96.346 25.2944 96.1478 25.9548 95.6854 27.0115C95.157 28.0682 92.9772 31.4363 92.9772 31.4363L93.5056 23.9075C93.5056 23.9075 92.8451 22.8508 92.3166 24.1056C91.7882 25.2944 90.7974 28.8607 90.5992 29.7192C90.401 30.5778 89.7405 31.3703 89.7405 31.3703L89.0799 25.7567C89.0799 25.7567 87.891 24.5018 87.6928 26.6813C87.5607 27.87 87.6928 31.8326 87.6928 32.493C87.6928 33.1534 87.0323 31.5024 87.0323 31.5024C87.0323 31.5024 86.6359 29.6532 86.1735 29.389C85.6451 29.1248 85.3148 29.7192 85.513 31.1061C85.7112 32.493 85.3148 38.1066 85.3148 38.1066C85.3148 38.1066 84.258 39.4935 82.7387 41.3427C81.2195 43.1919 68.8673 54.3531 64.2434 57.9194C59.6196 61.4857 59.0912 64.3916 58.4306 68.0239C57.7701 71.5902 57.0435 92.4597 57.0435 99.9886C57.0435 107.517 57.704 119.471 58.2325 123.434C58.7609 127.396 57.9022 132.482 57.1756 135.255C56.515 137.963 57.1756 140.407 59.0251 141.728C60.8746 143.048 68.9333 143.973 75.6048 143.973C82.2763 143.973 89.08 143.313 91.1937 142.586C93.2414 141.926 94.7606 141.728 94.7606 139.02C94.7606 136.312 93.3735 130.83 93.3735 129.245C93.3735 127.726 96.0817 111.81 96.0817 111.81C96.0817 111.81 113.52 117.094 116.757 115.905C119.993 114.716 147.208 89.0915 147.208 89.0915C147.208 89.0915 151.502 87.3744 153.681 87.0442C155.927 86.714 159.296 85.195 159.494 84.6667C159.692 84.1383 159.164 84.3365 157.777 84.3365C156.39 84.3365 154.21 84.9969 154.21 84.9969C154.21 84.9969 158.9 82.025 159.692 81.7608C160.221 81.5627 161.212 80.3079 159.89 80.572C158.173 80.9023 154.078 82.091 154.078 82.091L159.56 78.6568C159.56 78.6568 160.419 77.2699 159.362 77.2699C158.305 77.2699 153.219 80.3739 153.219 80.3739L157.182 76.6755C157.975 75.9491 157.314 74.9584 156.39 75.4868C156.39 75.4868 151.832 78.1285 151.766 78.1285C150.048 79.1852 148.199 79.7135 148.199 79.7135L147.34 80.2418C147.34 80.2418 147.67 78.3926 147.67 77.5341C147.67 76.6755 147.142 74.4301 145.953 74.298C144.764 74.0999 145.755 75.817 145.755 76.6755C145.755 77.5341 144.037 81.9589 144.037 82.6854C144.037 83.3458 144.037 84.7327 144.037 84.7327C144.037 84.7327 138.357 89.752 133.072 92.4597C127.788 95.1675 115.832 104.281 115.832 104.281C115.832 104.281 102.159 97.2808 99.0542 94.7052C95.9496 92.1295 92.5808 89.0915 89.146 86.3177C85.7112 83.61 83.5314 82.3552 83.5314 82.3552L72.3681 81.8929Z" fill="white" stroke="#263238" stroke-width="1.0348" stroke-miterlimit="10" stroke-linecap="round" stroke-linejoin="round"/>
<path d="M129.505 94.5731C123.693 98.2715 115.766 104.281 115.766 104.281C115.766 104.281 102.093 97.2808 98.9883 94.7052C95.8837 92.1295 92.5149 89.0915 89.0801 86.3177C85.6452 83.61 83.4654 82.3552 83.4654 82.3552L72.3683 81.8269C72.3683 81.8269 71.3114 79.5814 71.3114 78.2605C71.3114 76.9397 70.6509 70.4015 70.6509 70.4015C70.6509 70.4015 75.8031 61.1555 79.7003 54.6173C79.5682 54.4852 79.5022 54.4191 79.3701 54.2871C77.4545 52.3718 74.8123 51.3151 72.5004 50.7868C69.2637 53.6266 66.0931 56.4004 64.1775 57.8534C59.5537 61.4197 59.0253 64.3255 58.3647 67.9579C57.7042 71.5242 56.9776 92.3937 56.9776 99.9225C56.9776 107.451 57.6381 119.405 58.1665 123.368C58.695 127.33 57.8363 132.416 57.1097 135.189C56.4491 137.897 57.1097 140.341 58.9592 141.661C60.8087 143.048 68.8674 143.907 75.5389 143.907C82.2104 143.907 89.014 143.247 91.1278 142.52C93.1755 141.86 94.6947 141.661 94.6947 138.954C94.6947 136.246 93.3076 130.764 93.3076 129.179C93.3076 127.66 96.0158 111.744 96.0158 111.744C96.0158 111.744 113.454 117.028 116.691 115.839C118.408 115.178 126.995 107.583 134.592 100.649C133.205 98.0073 131.223 96.026 129.505 94.5731Z" fill="#4AA3C7" stroke="#263238" stroke-width="1.0348" stroke-miterlimit="10" stroke-linecap="round" stroke-linejoin="round"/>
<path d="M90.8637 89.3557C90.8637 89.3557 83.994 91.2049 83.5977 96.4223" stroke="#263238" stroke-width="1.0348" stroke-miterlimit="10" stroke-linecap="round" stroke-linejoin="round"/>
<path d="M96.1482 111.81C96.1482 111.81 88.1556 109.631 83.9941 105.404" stroke="#263238" stroke-width="1.0348" stroke-miterlimit="10" stroke-linecap="round" stroke-linejoin="round"/>
<path d="M91.6561 110.621C91.6561 110.621 84.7864 112.471 78.5112 110.027" stroke="#263238" stroke-width="1.0348" stroke-miterlimit="10" stroke-linecap="round" stroke-linejoin="round"/>
<path d="M62.6582 99.5923C62.6582 99.5923 64.838 114.782 75.2746 122.377" stroke="#263238" stroke-width="1.0348" stroke-miterlimit="10" stroke-linecap="round" stroke-linejoin="round"/>
<path d="M78.5776 126.472C79.3703 126.67 80.229 126.868 81.0216 127.066" stroke="#263238" stroke-width="1.0348" stroke-miterlimit="10" stroke-linecap="round" stroke-linejoin="round"/>
<path d="M62.6582 114.782C62.6582 114.782 66.5554 121.188 74.3499 124.953" stroke="#263238" stroke-width="1.0348" stroke-miterlimit="10" stroke-linecap="round" stroke-linejoin="round"/>
<path d="M60.6104 81.0343C60.6104 81.0343 67.2819 77.7322 71.2451 80.8362" stroke="#263238" stroke-width="1.0348" stroke-miterlimit="10" stroke-linecap="round" stroke-linejoin="round"/>
<path d="M62.46 65.8445C62.46 65.8445 68.537 67.9579 70.1884 72.1186" stroke="#263238" stroke-width="1.0348" stroke-miterlimit="10" stroke-linecap="round" stroke-linejoin="round"/>
<path d="M66.4233 64.3916C66.4233 64.3916 68.5371 65.8445 69.3298 68.9485" stroke="#263238" stroke-width="1.0348" stroke-miterlimit="10" stroke-linecap="round" stroke-linejoin="round"/>
<path d="M94.9591 54.5512C94.9591 54.5512 96.016 60.363 96.016 61.882C96.016 63.401 94.2985 63.9293 94.9591 65.9766C95.6196 68.0239 97.2049 68.2221 96.8086 69.9392C96.4783 71.6563 94.2325 72.6469 94.2325 72.6469C94.2325 72.6469 93.0435 77.402 91.8545 79.5154C90.6655 81.5627 86.2399 80.0437 86.2399 80.0437L85.9096 85.5252C85.9096 85.5252 84.3903 87.7707 78.7097 87.0442C73.095 86.3838 69.3299 84.4686 69.3299 84.4686L68.4712 83.2798C68.4712 83.2798 72.8968 81.0343 73.095 79.5154C73.2932 77.9964 73.095 74.364 73.095 69.2788C73.095 64.1274 71.5758 54.221 79.9647 51.6454C88.2876 49.0697 94.9591 54.5512 94.9591 54.5512Z" fill="white" stroke="#263238" stroke-width="1.0348" stroke-miterlimit="10" stroke-linecap="round" stroke-linejoin="round"/>
<path d="M84.5224 68.5523C84.5224 68.5523 82.6068 64.1274 80.427 66.637C79.0399 68.2881 80.7573 73.1092 81.616 73.8357C82.4747 74.4961 84.3243 74.1659 84.3243 74.1659C84.3243 74.1659 81.616 76.8736 78.7096 76.8736C75.8032 76.8736 73.2271 74.1659 71.3776 69.3448C69.528 64.5897 68.1409 56.3344 70.1886 51.3812C72.2363 46.428 82.8711 46.2299 85.249 46.2299C87.627 46.2299 91.26 47.6168 91.26 47.6168C91.26 47.6168 98.9223 46.9563 99.1205 49.4659C99.3186 52.0416 98.0636 52.1737 98.0636 52.1737C98.0636 52.1737 103.546 55.0796 100.97 56.2683C98.3939 57.4571 94.4967 56.7967 91.9205 56.7967C89.3444 56.7967 88.4857 58.6459 88.4857 58.6459C88.4857 58.6459 90.8637 60.1649 90.0049 60.8913C89.1462 61.5518 86.0417 62.9386 85.7114 64.1274C85.3811 65.3162 86.9004 67.2314 85.9096 68.09C84.8527 69.0806 84.5224 68.5523 84.5224 68.5523Z" fill="#263238" stroke="#263238" stroke-width="1.0348" stroke-miterlimit="10" stroke-linecap="round" stroke-linejoin="round"/>
<path d="M94.0345 66.5049C94.0345 67.3635 93.7043 68.09 93.2419 68.09C92.7795 68.09 92.4492 67.3635 92.4492 66.5049C92.4492 65.6464 92.7795 64.9199 93.2419 64.9199C93.6382 64.9199 94.0345 65.6464 94.0345 66.5049Z" fill="#263238"/>
<path d="M91.1938 64.5237C91.1938 64.5237 92.3168 61.948 94.0342 63.3349" stroke="#263238" stroke-width="1.0348" stroke-miterlimit="10" stroke-linecap="round" stroke-linejoin="round"/>
<path d="M76.2655 166.692L74.7462 163.786L66.8857 161.805" stroke="white" stroke-width="1.0348" stroke-miterlimit="10" stroke-linecap="round" stroke-linejoin="round"/>
</g>
<defs>
<clipPath id="clip0">
<rect width="259" height="254" fill="white"/>
</clipPath>
</defs>
</svg>
