<svg width="304" height="254" viewBox="0 0 304 254" fill="none" xmlns="http://www.w3.org/2000/svg">
<g clip-path="url(#clip0)">
<path d="M122.91 4.50926C203.062 -16.2758 229.521 38.6812 262.612 92.0882C295.703 145.495 330.135 211.937 273.055 253.648H35.2784C35.2784 253.648 0.564425 244.84 -2.89481e-05 198.127C-0.42337 163.744 33.9378 159.093 45.2269 106.462C56.4454 53.8297 82.0575 15.0779 122.91 4.50926Z" fill="#F8766A"/>
<path opacity="0.7" d="M122.91 4.50926C203.062 -16.2758 229.521 38.6812 262.612 92.0882C295.703 145.495 330.135 211.937 273.055 253.648H35.2784C35.2784 253.648 0.564425 244.84 -2.89481e-05 198.127C-0.42337 163.744 33.9378 159.093 45.2269 106.462C56.4454 53.8297 82.0575 15.0779 122.91 4.50926Z" fill="white"/>
<path d="M269.739 171.424H251.324C250.83 171.424 250.406 171.846 250.406 172.34V177.976C250.406 178.469 250.83 178.892 251.324 178.892H252.523C252.1 179.667 251.394 180.935 251.535 180.935C251.747 180.935 253.652 179.526 254.569 178.892H269.739C270.233 178.892 270.656 178.469 270.656 177.976V172.34C270.656 171.846 270.233 171.424 269.739 171.424Z" stroke="#263238" stroke-miterlimit="10" stroke-linecap="round" stroke-linejoin="round"/>
<path d="M265.011 182.133H283.427C283.921 182.133 284.344 182.556 284.344 183.049V188.686C284.344 189.179 283.921 189.602 283.427 189.602H282.227C282.651 190.377 283.356 191.645 283.215 191.645C283.003 191.645 281.098 190.236 280.181 189.602H265.011C264.518 189.602 264.094 189.179 264.094 188.686V183.049C264.094 182.556 264.518 182.133 265.011 182.133Z" stroke="#263238" stroke-miterlimit="10" stroke-linecap="round" stroke-linejoin="round"/>
<path d="M265.011 159.869H283.427C283.921 159.869 284.344 160.291 284.344 160.784V166.421C284.344 166.914 283.921 167.337 283.427 167.337H282.227C282.651 168.112 283.356 169.38 283.215 169.38C283.003 169.38 281.098 167.971 280.181 167.337H265.011C264.518 167.337 264.094 166.914 264.094 166.421V160.784C264.094 160.221 264.518 159.869 265.011 159.869Z" stroke="#263238" stroke-miterlimit="10" stroke-linecap="round" stroke-linejoin="round"/>
<path d="M45.2271 126.824C45.721 123.865 43.5337 121.751 40.9231 121.751C38.3831 121.751 36.1958 125.978 36.1958 125.978C36.1958 125.978 33.2325 123.019 30.5513 122.737C27.7996 122.455 25.5418 125.344 26.7412 129.079C28.5052 134.504 36.6897 138.027 36.6897 138.027C36.6897 138.027 44.1688 132.813 45.2271 126.824Z" stroke="#263238" stroke-miterlimit="10" stroke-linecap="round" stroke-linejoin="round"/>
<path d="M27.4467 137.322C27.094 135.772 25.5417 135.208 24.2717 135.702C23.0722 136.195 22.79 138.731 22.79 138.731C22.79 138.731 20.7438 137.886 19.4033 138.308C17.9921 138.731 17.4982 140.634 18.8388 142.184C20.8144 144.438 25.5417 144.509 25.5417 144.509C25.5417 144.509 28.1523 140.422 27.4467 137.322Z" stroke="#263238" stroke-miterlimit="10" stroke-linecap="round" stroke-linejoin="round"/>
<path d="M31.9623 140.775C24.9066 148.032 29.4928 158.178 36.9718 158.037C45.3681 157.896 44.733 144.227 40.7819 150.568C36.8307 156.839 46.7086 167.478 51.9298 161.348" stroke="#263238" stroke-miterlimit="10" stroke-linecap="round" stroke-linejoin="round"/>
<path d="M195.442 74.7556C195.442 57.7049 177.027 43.8951 154.378 43.8951C131.729 43.8951 113.314 57.7049 113.314 74.7556C113.314 90.82 129.683 103.996 150.497 105.475L154.378 115.551L158.259 105.475C179.073 103.996 195.442 90.82 195.442 74.7556Z" fill="white" stroke="#263238" stroke-miterlimit="10" stroke-linecap="round" stroke-linejoin="round"/>
<path d="M157.271 69.9645V65.0325L154.59 64.8211C154.308 63.7642 153.884 62.7778 153.39 61.9323L155.154 59.889L151.697 56.4366L149.651 58.1981C148.734 57.6344 147.746 57.2821 146.758 57.0003L146.546 54.3229H141.607L141.396 57.0003C140.337 57.2821 139.35 57.7048 138.503 58.1981L136.457 56.4366L133 59.889L134.763 61.9323C134.199 62.8483 133.846 63.8347 133.564 64.8211L130.883 65.0325V69.9645L133.564 70.1759C133.846 71.2327 134.27 72.2191 134.763 73.0646L133 75.1079L136.457 78.5603L138.503 76.7989C139.42 77.3625 140.408 77.7148 141.396 77.9967L141.607 80.6741H146.546L146.758 77.9967C147.816 77.7148 148.804 77.2921 149.651 76.7989L151.697 78.5603L155.154 75.1079L153.39 73.0646C153.955 72.1487 154.308 71.1623 154.59 70.1759L157.271 69.9645ZM143.936 72.2191C141.325 72.2191 139.209 70.1054 139.209 67.4985C139.209 64.8915 141.325 62.7778 143.936 62.7778C146.546 62.7778 148.663 64.8915 148.663 67.4985C148.663 70.1054 146.546 72.2191 143.936 72.2191Z" fill="#EE5C4F" stroke="#263238" stroke-miterlimit="10" stroke-linecap="round" stroke-linejoin="round"/>
<path d="M178.015 76.0239V72.2191L175.898 72.0782C175.686 71.3032 175.404 70.5281 174.981 69.8236L176.321 68.203L173.64 65.5256L172.017 66.8643C171.312 66.4416 170.536 66.1598 169.76 65.9484L169.618 63.8347H165.808L165.667 65.9484C164.891 66.1598 164.115 66.4416 163.409 66.8643L161.787 65.5256L159.105 68.203L160.446 69.8236C160.023 70.5281 159.74 71.3032 159.529 72.0782L157.412 72.2191V76.0239L159.529 76.1648C159.74 76.9398 160.023 77.7148 160.446 78.4194L159.105 80.0399L161.787 82.7173L163.409 81.3786C164.115 81.8014 164.891 82.0832 165.667 82.2946L165.808 84.4083H169.618L169.76 82.2946C170.536 82.0832 171.312 81.8014 172.017 81.3786L173.64 82.7173L176.321 80.0399L174.981 78.4194C175.404 77.7148 175.686 76.9398 175.898 76.1648L178.015 76.0239ZM167.713 77.7853C165.667 77.7853 164.044 76.1648 164.044 74.1215C164.044 72.0782 165.667 70.4577 167.713 70.4577C169.76 70.4577 171.382 72.0782 171.382 74.1215C171.382 76.1648 169.76 77.7853 167.713 77.7853Z" fill="#EE5C4F"/>
<path opacity="0.5" d="M178.015 76.0239V72.2191L175.898 72.0782C175.686 71.3032 175.404 70.5281 174.981 69.8236L176.321 68.203L173.64 65.5256L172.017 66.8643C171.312 66.4416 170.536 66.1598 169.76 65.9484L169.618 63.8347H165.808L165.667 65.9484C164.891 66.1598 164.115 66.4416 163.409 66.8643L161.787 65.5256L159.105 68.203L160.446 69.8236C160.023 70.5281 159.74 71.3032 159.529 72.0782L157.412 72.2191V76.0239L159.529 76.1648C159.74 76.9398 160.023 77.7148 160.446 78.4194L159.105 80.0399L161.787 82.7173L163.409 81.3786C164.115 81.8014 164.891 82.0832 165.667 82.2946L165.808 84.4083H169.618L169.76 82.2946C170.536 82.0832 171.312 81.8014 172.017 81.3786L173.64 82.7173L176.321 80.0399L174.981 78.4194C175.404 77.7148 175.686 76.9398 175.898 76.1648L178.015 76.0239ZM167.713 77.7853C165.667 77.7853 164.044 76.1648 164.044 74.1215C164.044 72.0782 165.667 70.4577 167.713 70.4577C169.76 70.4577 171.382 72.0782 171.382 74.1215C171.382 76.1648 169.76 77.7853 167.713 77.7853Z" fill="white"/>
<path d="M178.015 76.0239V72.2191L175.898 72.0782C175.686 71.3032 175.404 70.5281 174.981 69.8236L176.321 68.203L173.64 65.5256L172.017 66.8643C171.312 66.4416 170.536 66.1598 169.76 65.9484L169.618 63.8347H165.808L165.667 65.9484C164.891 66.1598 164.115 66.4416 163.409 66.8643L161.787 65.5256L159.105 68.203L160.446 69.8236C160.023 70.5281 159.74 71.3032 159.529 72.0782L157.412 72.2191V76.0239L159.529 76.1648C159.74 76.9398 160.023 77.7148 160.446 78.4194L159.105 80.0399L161.787 82.7173L163.409 81.3786C164.115 81.8014 164.891 82.0832 165.667 82.2946L165.808 84.4083H169.618L169.76 82.2946C170.536 82.0832 171.312 81.8014 172.017 81.3786L173.64 82.7173L176.321 80.0399L174.981 78.4194C175.404 77.7148 175.686 76.9398 175.898 76.1648L178.015 76.0239ZM167.713 77.7853C165.667 77.7853 164.044 76.1648 164.044 74.1215C164.044 72.0782 165.667 70.4577 167.713 70.4577C169.76 70.4577 171.382 72.0782 171.382 74.1215C171.382 76.1648 169.76 77.7853 167.713 77.7853Z" stroke="#263238" stroke-miterlimit="10" stroke-linecap="round" stroke-linejoin="round"/>
<path d="M160.093 89.1995V86.4516L158.611 86.3107C158.47 85.747 158.259 85.1834 157.906 84.6902L158.894 83.5628L156.989 81.6605L155.86 82.6469C155.366 82.3651 154.801 82.1537 154.237 81.9423L154.096 80.4627H151.344L151.203 81.9423C150.638 82.0832 150.074 82.2946 149.58 82.6469L148.451 81.6605L146.546 83.5628L147.534 84.6902C147.252 85.1834 147.04 85.747 146.828 86.3107L145.347 86.4516V89.1995L146.828 89.3404C146.969 89.904 147.181 90.4677 147.534 90.9609L146.546 92.0882L148.451 93.9906L149.58 93.0042C150.074 93.286 150.638 93.4974 151.203 93.7088L151.344 95.1884H154.096L154.237 93.7088C154.801 93.5678 155.366 93.3565 155.86 93.0042L156.989 93.9906L158.894 92.0882L157.906 90.9609C158.188 90.4677 158.47 89.904 158.611 89.3404L160.093 89.1995ZM152.685 90.4677C151.203 90.4677 150.074 89.2699 150.074 87.8608C150.074 86.3812 151.273 85.2538 152.685 85.2538C154.166 85.2538 155.295 86.4516 155.295 87.8608C155.366 89.3404 154.166 90.4677 152.685 90.4677Z" fill="#EE5C4F"/>
<path opacity="0.7" d="M160.093 89.1995V86.4516L158.611 86.3107C158.47 85.747 158.259 85.1834 157.906 84.6902L158.894 83.5628L156.989 81.6605L155.86 82.6469C155.366 82.3651 154.801 82.1537 154.237 81.9423L154.096 80.4627H151.344L151.203 81.9423C150.638 82.0832 150.074 82.2946 149.58 82.6469L148.451 81.6605L146.546 83.5628L147.534 84.6902C147.252 85.1834 147.04 85.747 146.828 86.3107L145.347 86.4516V89.1995L146.828 89.3404C146.969 89.904 147.181 90.4677 147.534 90.9609L146.546 92.0882L148.451 93.9906L149.58 93.0042C150.074 93.286 150.638 93.4974 151.203 93.7088L151.344 95.1884H154.096L154.237 93.7088C154.801 93.5678 155.366 93.3565 155.86 93.0042L156.989 93.9906L158.894 92.0882L157.906 90.9609C158.188 90.4677 158.47 89.904 158.611 89.3404L160.093 89.1995ZM152.685 90.4677C151.203 90.4677 150.074 89.2699 150.074 87.8608C150.074 86.3812 151.273 85.2538 152.685 85.2538C154.166 85.2538 155.295 86.4516 155.295 87.8608C155.366 89.3404 154.166 90.4677 152.685 90.4677Z" fill="white"/>
<path d="M160.093 89.1995V86.4516L158.611 86.3107C158.47 85.747 158.259 85.1834 157.906 84.6902L158.894 83.5628L156.989 81.6605L155.86 82.6469C155.366 82.3651 154.801 82.1537 154.237 81.9423L154.096 80.4627H151.344L151.203 81.9423C150.638 82.0832 150.074 82.2946 149.58 82.6469L148.451 81.6605L146.546 83.5628L147.534 84.6902C147.252 85.1834 147.04 85.747 146.828 86.3107L145.347 86.4516V89.1995L146.828 89.3404C146.969 89.904 147.181 90.4677 147.534 90.9609L146.546 92.0882L148.451 93.9906L149.58 93.0042C150.074 93.286 150.638 93.4974 151.203 93.7088L151.344 95.1884H154.096L154.237 93.7088C154.801 93.5678 155.366 93.3565 155.86 93.0042L156.989 93.9906L158.894 92.0882L157.906 90.9609C158.188 90.4677 158.47 89.904 158.611 89.3404L160.093 89.1995ZM152.685 90.4677C151.203 90.4677 150.074 89.2699 150.074 87.8608C150.074 86.3812 151.273 85.2538 152.685 85.2538C154.166 85.2538 155.295 86.4516 155.295 87.8608C155.366 89.3404 154.166 90.4677 152.685 90.4677Z" stroke="#263238" stroke-miterlimit="10" stroke-linecap="round" stroke-linejoin="round"/>
<path d="M219.784 177.553L214.775 181.358C206.943 178.328 207.437 177.694 200.028 176.567C196.148 176.003 188.175 176.215 181.401 176.567C175.334 176.849 170.253 177.272 170.253 177.272C170.253 177.272 185.141 162.475 189.233 160.291C193.255 158.107 211.317 150.427 211.882 150.145C211.882 150.145 225.429 165.294 219.784 177.553Z" fill="#EE5C4F"/>
<path opacity="0.2" d="M219.784 177.553L214.775 181.358C206.943 178.328 207.437 177.694 200.028 176.567C196.148 176.003 188.175 176.215 181.401 176.567C189.798 170.789 212.446 175.51 212.446 175.51C212.446 175.51 208.918 171.071 208.636 161.982C208.354 153.316 211.6 150.357 211.882 150.145C211.882 150.145 225.429 165.294 219.784 177.553Z" fill="black"/>
<path d="M170.324 177.342C170.324 177.342 185.211 162.546 189.303 160.362C193.396 158.178 211.952 150.216 211.952 150.216C211.952 150.216 225.499 165.294 219.855 177.483L214.845 181.288" stroke="#263238" stroke-miterlimit="10" stroke-linecap="round" stroke-linejoin="round"/>
<path d="M241.798 154.302L219.079 174.946C208.425 165.857 211.811 152.189 211.811 152.189L219.996 146.482L229.874 139.577C229.874 139.577 235.236 142.043 238.905 145.636C241.516 148.102 243.28 151.132 241.798 154.302Z" fill="white"/>
<path opacity="0.2" d="M238.905 145.566C238.553 146.622 237.847 147.679 236.577 148.736C229.239 154.796 223.242 150.216 219.996 146.482L229.874 139.577C229.874 139.577 235.236 142.043 238.905 145.566Z" fill="#EE5C4F"/>
<path d="M241.798 154.302L219.079 174.946C208.425 165.857 211.811 152.189 211.811 152.189L219.996 146.482L229.874 139.577C229.874 139.577 235.236 142.043 238.905 145.636C241.516 148.102 243.28 151.132 241.798 154.302Z" stroke="#263238" stroke-miterlimit="10" stroke-linecap="round" stroke-linejoin="round"/>
<path d="M232.626 152.048C232.626 152.048 228.886 151.202 226.134 145.918C223.383 140.634 223.735 115.762 224.3 110.83C224.935 105.898 234.39 103.15 234.813 108.153C234.883 108.928 235.166 110.407 235.589 112.38C236.153 114.916 236.93 118.369 237.776 122.103C240.599 134.715 244.126 151.414 241.727 154.373" fill="white"/>
<path opacity="0.2" d="M237.847 122.033C233.684 118.933 230.721 113.155 230.721 113.155L235.66 112.38C236.224 114.916 237 118.298 237.847 122.033Z" fill="#EE5C4F"/>
<path d="M232.626 152.048C232.626 152.048 228.886 151.202 226.134 145.918C223.383 140.634 223.735 115.762 224.3 110.83C224.935 105.898 234.39 103.15 234.813 108.153C234.883 108.928 235.166 110.407 235.589 112.38C236.153 114.916 236.93 118.369 237.776 122.103C240.599 134.715 244.126 151.414 241.727 154.373" stroke="#263238" stroke-miterlimit="10" stroke-linecap="round" stroke-linejoin="round"/>
<path d="M262.047 77.7853C262.047 77.7853 262.047 77.8557 262.047 77.9262C261.695 81.9423 256.756 81.1673 250.335 82.2946C245.396 83.1401 238.975 87.0857 234.248 90.4677C230.509 93.0746 227.898 95.3293 227.898 95.3293C227.898 95.3293 222.465 91.7359 217.597 81.7309C217.597 81.7309 235.306 70.5986 237.353 56.8594C238.975 46.0793 254.639 56.648 260.495 71.3736C261.624 74.2624 262.118 76.3057 262.047 77.7853Z" fill="white"/>
<path opacity="0.15" d="M261.977 77.9262C261.624 81.9423 256.685 81.1672 250.264 82.2946C245.325 83.1401 238.905 87.0857 234.177 90.4677C232.061 89.1994 230.861 88.0016 231.355 86.9448C233.542 82.0832 241.727 80.5331 241.727 80.5331C241.727 80.5331 241.021 77.3625 242.292 75.8125C243.562 74.2624 248.289 77.3625 254.992 79.7581C260.989 81.8718 261.906 78.5603 261.977 77.9262Z" fill="black"/>
<path d="M262.047 77.7853C262.047 77.7853 262.047 77.8557 262.047 77.9262C261.695 81.9423 256.756 81.1673 250.335 82.2946C245.396 83.1401 238.975 87.0857 234.248 90.4677C230.509 93.0746 227.898 95.3293 227.898 95.3293C227.898 95.3293 222.465 91.7359 217.597 81.7309C217.597 81.7309 235.306 70.5986 237.353 56.8594C238.975 46.0793 254.639 56.648 260.495 71.3736C261.624 74.2624 262.118 76.3057 262.047 77.7853Z" stroke="#263238" stroke-miterlimit="10" stroke-linecap="round" stroke-linejoin="round"/>
<path d="M243.562 65.737C247.866 64.1165 249.559 61.1573 250.406 61.7914C251.253 62.4255 254.287 64.6097 253.793 65.9484C253.299 67.2167 249.418 71.7259 248.995 72.5714" stroke="#263238" stroke-miterlimit="10" stroke-linecap="round" stroke-linejoin="round"/>
<path d="M241.516 54.2524C239.187 54.4638 239.47 60.5936 245.185 68.1326C250.9 75.6716 256.544 79.124 259.085 78.2785C261.625 77.433 259.861 74.1215 259.861 74.1215" stroke="#263238" stroke-miterlimit="10" stroke-linecap="round" stroke-linejoin="round"/>
<path d="M236.012 90.4677C236.012 90.4677 225.147 98.6408 222.818 98.5703C220.49 98.4999 217.315 98.4294 214.281 94.4133C211.952 91.3132 212.305 88.5653 212.94 86.663C213.152 86.0993 213.364 85.6061 213.575 85.1834C214.069 84.1265 223.03 75.1079 223.03 75.1079L225.288 75.6716C225.288 75.6716 226.769 83.7742 235.589 89.4108L236.012 90.4677Z" fill="#EE5C4F"/>
<path opacity="0.2" d="M236.012 90.4677C236.012 90.4677 225.147 98.6408 222.818 98.5703C220.49 98.4999 217.315 98.4294 214.281 94.4133C211.952 91.3132 212.305 88.5653 212.94 86.663C213.505 88.8472 214.563 92.0177 216.327 93.286C219.149 95.3293 230.721 88.8472 230.721 88.8472C230.721 88.8472 224.3 80.9559 225.288 75.742C225.288 75.742 226.769 83.8447 235.589 89.4813L236.012 90.4677Z" fill="black"/>
<path d="M236.012 90.4677C236.012 90.4677 225.147 98.6408 222.818 98.5703C220.49 98.4999 217.315 98.4294 214.281 94.4133C211.952 91.3132 212.305 88.5653 212.94 86.663C213.152 86.0993 213.364 85.6061 213.575 85.1834C214.069 84.1265 223.03 75.1079 223.03 75.1079L225.288 75.6716C225.288 75.6716 226.769 83.7742 235.589 89.4108L236.012 90.4677Z" stroke="#263238" stroke-miterlimit="10" stroke-linecap="round" stroke-linejoin="round"/>
<path opacity="0.15" d="M241.516 54.2524C239.187 54.4638 239.47 60.5936 245.185 68.1326C250.9 75.6716 256.544 79.124 259.085 78.2785C261.625 77.433 259.861 74.1215 259.861 74.1215C259.861 74.1215 258.308 67.6394 252.734 61.721C246.243 54.8161 241.516 54.2524 241.516 54.2524Z" fill="black"/>
<path d="M244.761 103.15C244.479 106.25 236.154 117.664 230.721 115.198L244.761 103.15Z" fill="white"/>
<path d="M244.761 103.15C244.479 106.25 236.154 117.664 230.721 115.198" stroke="#263238" stroke-miterlimit="10" stroke-linecap="round" stroke-linejoin="round"/>
<path d="M224.441 97.6544C224.441 97.6544 228.745 109.632 231.849 111.816C234.954 114.001 242.997 107.307 242.292 106.18C241.586 105.052 233.825 97.8657 232.555 92.0178C232.555 92.0178 228.886 92.5814 224.441 97.6544Z" fill="#EE5C4F"/>
<path opacity="0.2" d="M224.441 97.6544C224.441 97.6544 228.745 109.632 231.849 111.816C234.954 114.001 242.997 107.307 242.292 106.18C241.586 105.052 233.825 97.8657 232.555 92.0178C232.555 92.0178 228.886 92.5814 224.441 97.6544Z" fill="black"/>
<path d="M224.441 97.6544C224.441 97.6544 228.745 109.632 231.849 111.816C234.954 114.001 242.997 107.307 242.292 106.18C241.586 105.052 233.825 97.8657 232.555 92.0178C232.555 92.0178 228.886 92.5814 224.441 97.6544Z" stroke="#263238" stroke-miterlimit="10" stroke-linecap="round" stroke-linejoin="round"/>
<path d="M244.55 104.207C245.255 101.741 243.491 102.375 243.774 100.12C244.056 97.7953 242.574 97.7953 242.08 95.3997C241.586 93.0042 240.105 93.2155 239.258 91.2427C238.411 89.2699 236.224 90.0449 234.178 91.0313C232.061 92.0178 229.31 96.5975 229.31 96.5975C228.886 99.5567 231.356 98.9226 231.356 98.9226C229.733 101.952 232.414 102.586 232.414 102.586C232.273 105.827 234.249 105.405 234.249 105.405C234.249 105.405 234.178 106.955 235.66 107.166C236.577 107.378 243.844 106.673 244.55 104.207Z" fill="white" stroke="#263238" stroke-miterlimit="10" stroke-linecap="round" stroke-linejoin="round"/>
<path d="M231.355 98.8521C231.355 98.8521 235.377 94.6247 236.577 94.2019" stroke="#263238" stroke-miterlimit="10" stroke-linecap="round" stroke-linejoin="round"/>
<path d="M232.484 102.586C232.484 102.586 234.883 99.909 238.905 98.5703" stroke="#263238" stroke-miterlimit="10" stroke-linecap="round" stroke-linejoin="round"/>
<path d="M234.249 105.405C234.249 105.405 239.54 102.798 240.316 102.586" stroke="#263238" stroke-miterlimit="10" stroke-linecap="round" stroke-linejoin="round"/>
<path d="M227.263 114.705C227.263 114.705 223.383 111.112 222.677 109.562C221.971 108.012 220.631 101.459 221.548 99.6976C222.465 97.9362 225.358 94.977 225.781 93.5678C226.205 92.1587 228.674 95.2588 225.852 100.895C225.852 100.895 229.239 104.982 228.674 109.421" fill="white"/>
<path d="M227.263 114.705C227.263 114.705 223.383 111.112 222.677 109.562C221.971 108.012 220.631 101.459 221.548 99.6976C222.465 97.9362 225.358 94.977 225.781 93.5678C226.205 92.1587 228.674 95.2588 225.852 100.895C225.852 100.895 229.239 104.982 228.674 109.421" stroke="#263238" stroke-miterlimit="10" stroke-linecap="round" stroke-linejoin="round"/>
<path d="M225.005 218.983C225.005 218.983 223.452 219.617 221.195 216.798C216.961 211.514 210.611 198.761 206.378 192.631C204.614 190.024 199.604 187.417 194.313 185.233C186.057 181.922 176.814 179.526 176.814 179.526C176.814 179.526 199.322 178.117 205.108 179.878C210.047 181.358 227.615 191.363 232.625 194.252C233.472 194.745 233.965 195.027 233.965 195.027C233.965 195.027 234.6 205.666 225.005 218.983Z" fill="#EE5C4F"/>
<path opacity="0.2" d="M225.006 218.983C225.006 218.983 223.453 219.617 221.196 216.798C216.962 211.514 210.612 198.761 206.379 192.631C204.615 190.024 199.605 187.417 194.313 185.233C214.775 189.883 221.972 210.387 221.972 210.387C221.972 210.387 223.03 198.761 232.485 194.252C233.331 194.745 233.825 195.027 233.825 195.027C233.825 195.027 234.601 205.666 225.006 218.983Z" fill="black"/>
<path d="M176.745 179.526C176.745 179.526 199.252 178.117 204.967 179.878C210.753 181.64 233.825 195.027 233.825 195.027C233.825 195.027 234.601 205.666 224.935 218.982" stroke="#263238" stroke-miterlimit="10" stroke-linecap="round" stroke-linejoin="round"/>
<path d="M262.542 228.142C261.413 228.917 259.155 228.917 256.333 228.424C253.722 227.931 250.618 227.015 247.442 225.887C236.577 222.153 224.3 216.023 224.3 216.023C224.3 216.023 224.37 201.579 232.837 195.943C232.837 195.943 243.844 203.482 250.97 205.384C256.897 206.934 262.542 228.142 262.542 228.142Z" fill="white"/>
<path opacity="0.2" d="M256.333 228.353C253.722 227.86 250.618 226.944 247.442 225.817C245.82 218.489 250.476 210.387 250.476 210.387C250.618 218.208 253.651 224.408 256.333 228.353Z" fill="#EE5C4F"/>
<path d="M262.542 228.142C261.413 228.917 259.155 228.917 256.333 228.424C253.722 227.931 250.618 227.015 247.442 225.887C236.577 222.153 224.3 216.023 224.3 216.023C224.3 216.023 224.37 201.579 232.837 195.943C232.837 195.943 243.844 203.482 250.97 205.384C256.897 206.934 262.542 228.142 262.542 228.142Z" stroke="#263238" stroke-miterlimit="10" stroke-linecap="round" stroke-linejoin="round"/>
<path d="M252.382 223.915C251.747 222.435 251.253 220.533 250.9 218.208L252.382 223.915Z" fill="white"/>
<path d="M252.382 223.915C251.747 222.435 251.253 220.533 250.9 218.208" stroke="#263238" stroke-miterlimit="10" stroke-linecap="round" stroke-linejoin="round"/>
<path d="M252.381 199.536C255.486 200.029 258.379 206.793 260.354 209.189C260.354 209.189 265.858 211.796 266.845 214.191C267.763 216.587 271.573 226.31 264.094 228.353C259.79 229.481 256.615 229.269 254.357 227.015" fill="white"/>
<path d="M252.381 199.536C255.486 200.029 258.379 206.793 260.354 209.189C260.354 209.189 265.858 211.796 266.845 214.191C267.763 216.587 271.573 226.31 264.094 228.353C259.79 229.481 256.615 229.269 254.357 227.015" stroke="#263238" stroke-miterlimit="10" stroke-linecap="round" stroke-linejoin="round"/>
<path d="M253.087 189.954V190.165C253.087 192.209 252.452 196.366 251.112 203.623C249.842 210.457 249.63 210.95 248.783 211.303C247.796 211.725 240.528 213.346 237.494 213.98C237.212 214.05 237 214.05 236.789 214.121C236.365 214.191 235.166 213.628 235.236 213.135C235.589 210.88 238.129 190.588 239.117 189.884C240.669 188.897 250.547 187.911 251.676 188.263C252.311 188.474 253.087 189.39 253.087 189.954Z" fill="#999999"/>
<path opacity="0.2" d="M253.087 190.165C253.087 192.209 252.452 196.366 251.112 203.623C249.842 210.457 249.63 210.95 248.783 211.303C247.795 211.725 240.528 213.346 237.494 213.98C237.847 211.021 238.976 202.848 241.304 191.574L253.087 190.165Z" fill="black"/>
<path d="M253.087 189.954V190.165C253.087 192.209 252.452 196.366 251.112 203.623C249.842 210.457 249.63 210.95 248.783 211.303C247.796 211.725 240.528 213.346 237.494 213.98C237.212 214.05 237 214.05 236.789 214.121C236.365 214.191 235.166 213.628 235.236 213.135C235.589 210.88 238.129 190.588 239.117 189.884C240.669 188.897 250.547 187.911 251.676 188.263C252.311 188.474 253.087 189.39 253.087 189.954Z" stroke="#263238" stroke-miterlimit="10" stroke-linecap="round" stroke-linejoin="round"/>
<path d="M237.424 212.571C237.424 212.571 240.74 193.406 241.022 192.279C241.304 191.081 241.587 191.575 251.465 190.306" stroke="#263238" stroke-miterlimit="10" stroke-linecap="round" stroke-linejoin="round"/>
<path d="M250.97 218.278C250.97 218.278 245.89 220.11 246.172 217.01C246.172 217.01 244.973 216.164 244.973 214.896C244.973 213.628 245.82 212.219 245.82 212.219C245.82 212.219 243.844 215.53 242.221 213.628C241.798 213.135 243.562 209.471 243.562 209.471C243.562 209.471 241.939 210.457 241.163 208.625C240.951 208.062 243.632 203.059 244.197 202.707C246.172 201.439 251.323 198.832 253.087 199.818C254.851 200.804 255.415 203.975 256.474 205.173C257.532 206.371 256.968 210.316 256.474 213.135" fill="white"/>
<path d="M250.97 218.278C250.97 218.278 245.89 220.11 246.172 217.01C246.172 217.01 244.973 216.164 244.973 214.896C244.973 213.628 245.82 212.219 245.82 212.219C245.82 212.219 243.844 215.53 242.221 213.628C241.798 213.135 243.562 209.471 243.562 209.471C243.562 209.471 241.939 210.457 241.163 208.625C240.951 208.062 243.632 203.059 244.197 202.707C246.172 201.439 251.323 198.832 253.087 199.818C254.851 200.804 255.415 203.975 256.474 205.173C257.532 206.371 256.968 210.316 256.474 213.135" stroke="#263238" stroke-miterlimit="10" stroke-linecap="round" stroke-linejoin="round"/>
<path d="M243.562 209.4C243.562 209.4 245.396 206.23 245.96 205.807C246.525 205.384 250.97 204.116 250.97 204.116" fill="white"/>
<path d="M243.562 209.4C243.562 209.4 245.396 206.23 245.96 205.807C246.525 205.384 250.97 204.116 250.97 204.116" stroke="#263238" stroke-miterlimit="10" stroke-linecap="round" stroke-linejoin="round"/>
<path d="M245.819 212.148C246.948 210.88 247.583 209.471 248.077 209.4C248.571 209.33 252.169 208.766 252.452 208.696" fill="white"/>
<path d="M245.819 212.148C246.948 210.88 247.583 209.471 248.077 209.4C248.571 209.33 252.169 208.766 252.452 208.696" stroke="#263238" stroke-miterlimit="10" stroke-linecap="round" stroke-linejoin="round"/>
<path d="M245.96 216.798C247.23 215.389 249.136 213.91 249.559 213.91C249.982 213.91 252.24 213.628 252.381 213.557" fill="white"/>
<path d="M245.96 216.798C247.23 215.389 249.136 213.91 249.559 213.91C249.982 213.91 252.24 213.628 252.381 213.557" stroke="#263238" stroke-miterlimit="10" stroke-linecap="round" stroke-linejoin="round"/>
<path d="M251.746 217.573C251.746 217.573 250.688 218.489 249.065 218.207L251.746 217.573Z" fill="white"/>
<path d="M251.746 217.573C251.746 217.573 250.688 218.489 249.065 218.207" stroke="#263238" stroke-miterlimit="10" stroke-linecap="round" stroke-linejoin="round"/>
<path d="M250.97 218.278C250.97 218.278 255.627 222.153 257.744 217.573L250.97 218.278Z" fill="white"/>
<path d="M250.97 218.278C250.97 218.278 255.627 222.153 257.744 217.573" stroke="#263238" stroke-miterlimit="10" stroke-linecap="round" stroke-linejoin="round"/>
<path d="M136.88 176.99C136.88 176.99 134.834 176.919 131.8 176.849C124.956 176.708 113.173 176.426 110.351 176.567C105.2 176.919 100.191 179.315 100.191 179.315L88.8311 163.814C90.595 142.325 104.283 139.999 104.283 139.999C104.283 139.999 113.949 151.061 117.477 154.021C121.005 157.05 136.88 176.99 136.88 176.99Z" fill="#EE5C4F"/>
<path opacity="0.2" d="M131.87 176.849C125.026 176.708 113.243 176.426 110.421 176.567C105.271 176.919 100.261 179.315 100.261 179.315L88.9014 163.814C90.6653 142.325 104.353 139.999 104.353 139.999C104.353 139.999 105.129 153.105 94.687 162.123C94.687 162.123 97.9326 171.212 104.988 173.044C111.973 174.806 125.803 173.326 131.87 176.849Z" fill="black"/>
<path d="M136.88 176.99C136.88 176.99 121.005 157.05 117.477 154.021C113.949 150.991 104.283 139.999 104.283 139.999C104.283 139.999 90.595 142.325 88.8311 163.814L100.191 179.315" stroke="#263238" stroke-miterlimit="10" stroke-linecap="round" stroke-linejoin="round"/>
<path d="M103.365 142.606C103.365 142.606 103.154 154.161 90.5241 160.362L68.7927 129.642C67.2404 121.328 83.9624 118.228 83.9624 118.228L91.8647 128.163L103.365 142.606Z" fill="white"/>
<path opacity="0.2" d="M91.8648 128.092C84.5269 133.87 76.3423 127.669 76.3423 127.669L83.9624 118.228L91.8648 128.092Z" fill="#EE5C4F"/>
<path d="M103.365 142.606C103.365 142.606 103.154 154.161 90.5241 160.362L68.7927 129.642C67.2404 121.328 83.9624 118.228 83.9624 118.228L91.8647 128.163L103.365 142.606Z" stroke="#263238" stroke-miterlimit="10" stroke-linecap="round" stroke-linejoin="round"/>
<path d="M68.7927 129.572C67.8755 127.669 68.7927 123.019 70.345 117.735C72.1794 111.605 74.8606 104.489 76.9067 99.4159C78.0357 96.5976 78.8823 94.4134 79.2351 93.286C80.8579 88.5654 89.3953 93.4974 88.7603 98.4295C88.1253 103.361 89.9597 120.765 86.0086 125.203C82.0574 129.642 78.2473 129.572 78.2473 129.572" fill="white"/>
<path opacity="0.2" d="M82.6221 96.5271C82.6221 96.5271 79.447 115.551 76.3425 116.678C75.0725 117.171 72.6736 117.453 70.3452 117.735C72.1797 111.605 74.8609 104.489 76.907 99.4159L82.6221 96.5271Z" fill="#EE5C4F"/>
<path d="M68.7927 129.572C67.8755 127.669 68.7927 123.019 70.345 117.735C72.1794 111.605 74.8606 104.489 76.9067 99.4159C78.0357 96.5976 78.8823 94.4134 79.2351 93.286C80.8579 88.5654 89.3953 93.4974 88.7603 98.4295C88.1253 103.361 89.9597 120.765 86.0086 125.203C82.0574 129.642 78.2473 129.572 78.2473 129.572" stroke="#263238" stroke-miterlimit="10" stroke-linecap="round" stroke-linejoin="round"/>
<path d="M75.6368 107.448C75.0018 108.364 73.7318 108.505 72.8851 107.871L43.1807 86.4516C42.2634 85.8175 42.1223 84.5493 42.7573 83.7038L71.8267 43.5429C72.4617 42.6269 73.7318 42.486 74.5784 43.1201L104.283 64.5393C105.2 65.1734 105.341 66.4416 104.706 67.2871L75.6368 107.448Z" fill="#BFBFBF" stroke="#263238" stroke-miterlimit="10"/>
<path d="M82.1178 47.6732L79.5557 51.2142L94.9979 62.3563L97.56 58.8153L82.1178 47.6732Z" fill="#EE5C4F" stroke="#263238" stroke-miterlimit="10" stroke-linecap="round" stroke-linejoin="round"/>
<path d="M97.8626 57.7753H49.5312V93.1451H97.8626V57.7753Z" fill="#EE5C4F"/>
<path opacity="0.7" d="M73.4766 45.5773L45.1689 84.6997L73.88 105.416L102.188 66.2934L73.4766 45.5773Z" fill="white"/>
<path d="M97.8626 57.7753H49.5312V93.1451H97.8626V57.7753Z" stroke="#263238" stroke-miterlimit="10" stroke-linecap="round" stroke-linejoin="round"/>
<path d="M94.4051 58.9731L92.8529 61.1573C92.6412 61.5096 92.1473 61.5801 91.7945 61.2982L87.9139 58.4799C88.1256 57.8458 87.9139 57.1412 87.3495 56.7185C86.785 56.2957 86.0089 56.3662 85.515 56.7185L81.5638 53.9002C81.211 53.6888 81.1405 53.1956 81.4227 52.8433L82.9749 50.6591C83.1866 50.3068 83.6805 50.2364 84.0333 50.5182L94.264 57.9163C94.5463 58.1981 94.6168 58.6913 94.4051 58.9731Z" stroke="#263238" stroke-miterlimit="10" stroke-linecap="round" stroke-linejoin="round"/>
<path d="M86.0791 101.107C86.0791 101.107 90.5947 98.2885 91.5825 96.9498C92.5703 95.6111 95.1104 89.4108 94.5459 87.5084C93.9109 85.6061 91.6531 82.1537 91.512 80.7445C91.3708 79.2649 88.3369 81.8718 90.0303 87.9312C90.0303 87.9312 85.938 91.3132 85.6558 95.8225" fill="white"/>
<path d="M86.0791 101.107C86.0791 101.107 90.5947 98.2885 91.5825 96.9498C92.5703 95.6111 95.1104 89.4108 94.5459 87.5084C93.9109 85.6061 91.6531 82.1537 91.512 80.7445C91.3708 79.2649 88.3369 81.8718 90.0303 87.9312C90.0303 87.9312 85.938 91.3132 85.6558 95.8225" stroke="#263238" stroke-miterlimit="10" stroke-linecap="round" stroke-linejoin="round"/>
<path d="M83.6802 75.1079C83.6802 80.4627 79.3762 84.7606 74.0139 84.7606C68.6516 84.7606 64.3477 80.4627 64.3477 75.1079C64.3477 69.7531 68.6516 65.4552 74.0139 65.4552C79.3762 65.4552 83.6802 69.8236 83.6802 75.1079Z" fill="white" stroke="#263238" stroke-miterlimit="10" stroke-linecap="round" stroke-linejoin="round"/>
<path d="M69.2163 71.6555L70.4158 78.4195L81.211 75.5307" fill="white"/>
<path d="M69.2163 71.6555L70.4158 78.4195L81.211 75.5307" stroke="#263238" stroke-miterlimit="10" stroke-linecap="round" stroke-linejoin="round"/>
<path d="M133.494 180.231C133.494 180.231 119.665 182.415 109.222 188.052C107.105 189.179 105.059 190.518 103.366 191.927C98.4975 196.084 94.2641 204.68 90.6657 211.514C87.5612 217.292 85.2328 219.617 85.2328 219.617C75.6371 206.3 76.3427 195.661 76.3427 195.661C76.3427 195.661 76.3427 195.661 76.4132 195.591C77.9655 194.675 99.5558 182.133 105.13 180.513C110.915 178.892 133.494 180.231 133.494 180.231Z" fill="#EE5C4F"/>
<path opacity="0.2" d="M109.222 188.122C107.105 189.249 105.059 190.588 103.366 191.997C98.4975 196.154 94.2641 204.75 90.6657 211.584C87.5612 217.362 85.2328 219.687 85.2328 219.687C75.6371 206.371 76.3427 195.731 76.3427 195.731C76.3427 195.731 76.3427 195.731 76.4132 195.661C77.1893 195.309 82.1283 193.688 88.7607 206.371C88.8312 206.441 93.4174 191.504 109.222 188.122Z" fill="black"/>
<path d="M62.6546 165.012C62.6546 165.012 56.5867 163.462 58.4212 169.098C60.2557 174.735 66.7469 174.594 66.7469 174.594" fill="white"/>
<path d="M62.6546 165.012C62.6546 165.012 56.5867 163.462 58.4212 169.098C60.2557 174.735 66.7469 174.594 66.7469 174.594" stroke="#263238" stroke-miterlimit="10" stroke-linecap="round" stroke-linejoin="round"/>
<path d="M133.494 180.231C133.494 180.231 110.986 178.822 105.271 180.583C99.4854 182.345 76.4133 195.731 76.4133 195.731C76.4133 195.731 75.6372 206.371 85.3034 219.687" stroke="#263238" stroke-miterlimit="10" stroke-linecap="round" stroke-linejoin="round"/>
<path d="M85.9383 216.728C85.9383 216.728 52.4238 228.847 46.9204 222.294C46.9204 222.294 49.3899 215.319 52.7766 210.034C54.6111 207.146 56.6572 204.821 58.7739 204.257C61.4551 203.552 64.7713 202.284 67.8758 201.016C72.9559 198.902 77.4009 196.718 77.4009 196.718C85.9383 202.284 85.9383 216.728 85.9383 216.728Z" fill="white"/>
<path opacity="0.2" d="M67.876 200.945C66.8882 205.455 64.2071 213.91 57.4336 213.346C54.823 213.135 53.4119 211.796 52.7769 209.964C54.6113 207.075 56.6575 204.75 58.7742 204.186C61.5259 203.482 64.8421 202.214 67.876 200.945Z" fill="#EE5C4F"/>
<path d="M85.9383 216.728C85.9383 216.728 52.4238 228.847 46.9204 222.294C46.9204 222.294 49.3899 215.319 52.7766 210.034C54.6111 207.146 56.6572 204.821 58.7739 204.257C61.4551 203.552 64.7713 202.284 67.8758 201.016C72.9559 198.902 77.4009 196.718 77.4009 196.718C85.9383 202.284 85.9383 216.728 85.9383 216.728Z" stroke="#263238" stroke-miterlimit="10" stroke-linecap="round" stroke-linejoin="round"/>
<path d="M49.531 223.703C41.6286 224.055 41.1347 205.525 45.1564 177.976C45.1564 177.976 51.2243 165.928 54.0466 165.787C54.8227 165.716 55.8105 165.716 56.9394 165.716C59.9734 165.716 63.5717 165.787 63.5717 165.787C63.5717 165.787 65.1946 172.762 65.1946 175.158C65.1946 178.751 63.6423 179.103 63.6423 179.103C63.7129 182.485 61.0317 182.767 58.0683 182.345C58.0683 182.345 57.9978 182.485 57.8567 182.767C57.5039 183.401 56.4455 184.599 53.9055 184.951C53.8349 195.731 64.3479 211.937 58.7739 215.53" fill="white"/>
<path opacity="0.2" d="M65.1948 175.158C65.1948 178.751 63.6426 179.103 63.6426 179.103C63.7131 182.485 61.032 182.767 58.0686 182.345C58.0686 182.345 57.9981 182.485 57.8569 182.767L58.7742 180.09C58.7742 180.09 59.6914 180.513 60.2559 180.231C62.0198 179.385 61.1025 176.356 61.1025 176.356C61.1025 176.356 62.0903 176.074 62.3726 174.735C62.6548 173.326 59.5503 172.41 59.5503 172.41C60.5381 170.789 58.3508 169.239 58.3508 169.239C59.127 168.112 58.1392 166.844 56.8691 165.787C59.9031 165.787 63.5015 165.857 63.5015 165.857C63.5015 165.857 65.1948 172.762 65.1948 175.158Z" fill="#EE5C4F"/>
<path d="M49.531 223.703C41.6286 224.055 41.1347 205.525 45.1564 177.976C45.1564 177.976 51.2243 165.928 54.0466 165.787C54.8227 165.716 55.8105 165.716 56.9394 165.716C59.9734 165.716 63.5717 165.787 63.5717 165.787C63.5717 165.787 65.1946 172.762 65.1946 175.158C65.1946 178.751 63.6423 179.103 63.6423 179.103C63.7129 182.485 61.0317 182.767 58.0683 182.345C58.0683 182.345 57.9978 182.485 57.8567 182.767C57.5039 183.401 56.4455 184.599 53.9055 184.951C53.8349 195.731 64.3479 211.937 58.7739 215.53" stroke="#263238" stroke-miterlimit="10" stroke-linecap="round" stroke-linejoin="round"/>
<path d="M63.5715 174.101C62.5837 172.339 61.6665 173.326 57.0098 172.199C57.0098 172.199 60.0437 172.48 62.3721 171.917" stroke="#263238" stroke-miterlimit="10" stroke-linecap="round" stroke-linejoin="round"/>
<path d="M56.4453 168.746C57.0803 169.028 59.832 168.817 61.1021 168.746" stroke="#263238" stroke-miterlimit="10" stroke-linecap="round" stroke-linejoin="round"/>
<path d="M58.0684 176.285C58.0684 176.144 62.0195 176.497 62.6546 176.919C63.2896 177.412 63.7129 179.103 63.7129 179.103" stroke="#263238" stroke-miterlimit="10" stroke-linecap="round" stroke-linejoin="round"/>
<path d="M61.1023 180.019C60.8201 180.301 58.7739 180.019 58.7739 180.019C58.7739 180.019 58.6328 181.358 58.0684 182.274" stroke="#263238" stroke-miterlimit="10" stroke-linecap="round" stroke-linejoin="round"/>
<path d="M82.6224 162.757C82.6224 168.535 80.294 173.537 76.7662 176.215H65.5476C62.0903 173.537 59.6914 168.535 59.6914 162.757C59.6914 162.546 59.6914 162.264 59.6914 162.053H82.5518C82.6224 162.335 82.6224 162.546 82.6224 162.757Z" fill="#757575"/>
<path opacity="0.2" d="M74.0144 175.581L73.9439 176.215H65.5476C62.0903 173.537 59.6914 168.535 59.6914 162.757C59.6914 162.546 59.6914 162.264 59.6914 162.053H62.1609C63.9248 166.28 67.7349 173.537 74.0144 175.581Z" fill="black"/>
<path d="M82.6224 162.757C82.6224 168.535 80.294 173.537 76.7662 176.215H65.5476C62.0903 173.537 59.6914 168.535 59.6914 162.757C59.6914 162.546 59.6914 162.264 59.6914 162.053H82.5518C82.6224 162.335 82.6224 162.546 82.6224 162.757Z" stroke="#263238" stroke-miterlimit="10" stroke-linecap="round" stroke-linejoin="round"/>
<path d="M77.6128 175.581H64.7009L64.0659 177.342H78.2478L77.6128 175.581Z" fill="#757575" stroke="#263238" stroke-miterlimit="10" stroke-linecap="round" stroke-linejoin="round"/>
<path opacity="0.2" d="M78.2478 177.342L77.6128 175.581H64.7009L64.0659 177.342" fill="black"/>
<path d="M67.5228 148.032C65.5472 151.414 70.839 154.584 68.2284 159.234" stroke="#263238" stroke-miterlimit="10" stroke-linecap="round" stroke-linejoin="round"/>
<path d="M70.8392 148.032C68.8636 151.414 74.1554 154.584 71.5448 159.234" stroke="#263238" stroke-miterlimit="10" stroke-linecap="round" stroke-linejoin="round"/>
<path d="M74.5082 148.032C72.5326 151.414 77.8243 154.584 75.2137 159.234" stroke="#263238" stroke-miterlimit="10" stroke-linecap="round" stroke-linejoin="round"/>
<path d="M206.943 197.634C201.934 189.108 181.19 181.64 158.118 180.724C158.047 180.724 157.977 180.724 157.906 180.724C157.13 180.724 156.424 180.654 155.648 180.654C155.296 180.654 154.872 180.654 154.519 180.654C154.167 180.654 153.743 180.654 153.39 180.654C152.614 180.654 151.909 180.724 151.133 180.724C151.062 180.724 150.992 180.724 150.921 180.724C127.849 181.64 107.105 189.108 102.096 197.634C96.7334 206.793 88.8311 221.449 88.8311 221.449C93.2761 228.635 110.351 229.622 110.351 229.622L111.268 248.927H148.875H160.235H197.841L198.759 229.622C198.759 229.622 215.833 228.635 220.278 221.449C220.208 221.449 212.305 206.793 206.943 197.634Z" fill="#EE5C4F" stroke="#263238" stroke-miterlimit="10" stroke-linecap="round" stroke-linejoin="round"/>
<path d="M129.048 241.952C129.048 241.952 89.1839 248.645 86.2911 243.149C86.0089 242.586 85.7972 241.952 85.7266 241.177C84.8094 234.554 90.5245 221.589 90.5245 221.589C94.9696 221.167 99.6263 222.294 103.366 223.703C107.67 225.324 110.774 227.226 110.774 227.297L110.492 227.931L110.422 228.142L119.735 228.424L128.061 228.706H128.272L129.048 241.952Z" fill="white"/>
<path opacity="0.2" d="M110.492 228.001C101.39 228.212 97.8623 229.41 97.8623 229.41C97.8623 229.41 100.191 225.746 103.295 223.774C107.599 225.394 110.704 227.297 110.704 227.367L110.492 228.001Z" fill="#EE5C4F"/>
<path opacity="0.2" d="M129.048 241.952C129.048 241.952 89.1838 248.645 86.291 243.149C86.0088 242.586 85.7971 241.952 85.7266 241.177C86.7849 241.529 87.7727 241.811 88.8311 241.881C94.0523 242.093 120.37 238.781 120.37 238.781L119.735 228.424V228.072C122.275 228.212 125.027 228.424 128.131 228.706C128.202 228.706 128.272 228.706 128.343 228.706L129.048 241.952Z" fill="#EE5C4F"/>
<path d="M129.048 241.952C129.048 241.952 89.1839 248.645 86.2911 243.149C86.0089 242.586 85.7972 241.952 85.7266 241.177C84.8094 234.554 90.5245 221.589 90.5245 221.589C94.9696 221.167 99.6263 222.294 103.366 223.703C107.67 225.324 110.774 227.226 110.774 227.297L110.492 227.931L110.422 228.142L119.735 228.424L128.061 228.706H128.272L129.048 241.952Z" stroke="#263238" stroke-miterlimit="10" stroke-linecap="round" stroke-linejoin="round"/>
<path d="M110.351 228.142C110.351 228.142 100.896 227.86 96.8745 229.762" stroke="#263238" stroke-miterlimit="10" stroke-linecap="round" stroke-linejoin="round"/>
<path d="M195.231 225.465C195.231 225.465 191.562 208.414 198.688 200.17" stroke="#263238" stroke-miterlimit="10" stroke-linecap="round" stroke-linejoin="round"/>
<path d="M201.51 208.696C201.51 208.696 196.642 212.219 195.795 217.926" stroke="#263238" stroke-miterlimit="10" stroke-linecap="round" stroke-linejoin="round"/>
<path d="M110.351 198.197C110.351 198.197 116.913 210.95 113.103 226.451" stroke="#263238" stroke-miterlimit="10" stroke-linecap="round" stroke-linejoin="round"/>
<path d="M105.624 204.116C105.624 204.116 110.774 207.287 113.103 212.148" stroke="#263238" stroke-miterlimit="10" stroke-linecap="round" stroke-linejoin="round"/>
<path d="M170.324 182.767C170.324 182.767 162.704 202.284 139.914 191.715" stroke="#263238" stroke-miterlimit="10" stroke-linecap="round" stroke-linejoin="round"/>
<path d="M205.744 195.943C205.744 195.943 200.805 198.832 198.618 205.173" stroke="#263238" stroke-miterlimit="10" stroke-linecap="round" stroke-linejoin="round"/>
<path d="M103.295 195.943C103.295 195.943 107.176 197.986 109.434 202.918" stroke="#263238" stroke-miterlimit="10" stroke-linecap="round" stroke-linejoin="round"/>
<path d="M136.88 182.133C136.88 182.133 139.42 192.49 153.955 192.772" stroke="#263238" stroke-miterlimit="10" stroke-linecap="round" stroke-linejoin="round"/>
<path d="M184.294 192.702C184.294 192.702 157.271 219.053 138.08 220.039" stroke="#263238" stroke-miterlimit="10" stroke-linecap="round" stroke-linejoin="round"/>
<path d="M122.91 197.211C122.91 197.211 126.65 205.596 133.494 208.696" stroke="#263238" stroke-miterlimit="10" stroke-linecap="round" stroke-linejoin="round"/>
<path d="M180.202 241.952C180.202 241.952 220.137 248.645 222.96 243.149C223.242 242.586 223.453 241.952 223.524 241.177C224.441 234.554 218.726 221.589 218.726 221.589C214.281 221.167 209.624 222.294 205.885 223.703C201.581 225.324 198.476 227.226 198.476 227.297L198.759 227.931L198.829 228.142L189.516 228.424L181.19 228.706H180.978L180.202 241.952Z" fill="white"/>
<path opacity="0.2" d="M198.759 228.001C207.86 228.212 211.388 229.41 211.388 229.41C211.388 229.41 209.06 225.746 205.955 223.774C201.651 225.394 198.547 227.297 198.547 227.367L198.759 228.001Z" fill="#EE5C4F"/>
<path opacity="0.2" d="M180.202 241.952C180.202 241.952 220.137 248.645 222.96 243.149C223.242 242.586 223.453 241.952 223.524 241.177C222.536 241.529 221.478 241.811 220.419 241.881C215.198 242.093 188.881 238.781 188.881 238.781L189.516 228.424V228.072C186.976 228.212 184.224 228.424 181.19 228.706C181.119 228.706 181.049 228.706 180.978 228.706L180.202 241.952Z" fill="#EE5C4F"/>
<path d="M180.202 241.952C180.202 241.952 220.137 248.645 222.96 243.149C223.242 242.586 223.453 241.952 223.524 241.177C224.441 234.554 218.726 221.589 218.726 221.589C214.281 221.167 209.624 222.294 205.885 223.703C201.581 225.324 198.476 227.226 198.476 227.297L198.759 227.931L198.829 228.142L189.516 228.424L181.19 228.706H180.978L180.202 241.952Z" stroke="#263238" stroke-miterlimit="10" stroke-linecap="round" stroke-linejoin="round"/>
<path d="M198.9 228.142C198.9 228.142 208.355 227.86 212.376 229.762" stroke="#263238" stroke-miterlimit="10" stroke-linecap="round" stroke-linejoin="round"/>
<path d="M168.066 182.767C168.066 182.767 163.762 190.518 153.743 190.024C145.559 189.602 139.914 183.401 139.914 183.401C142.877 181.006 143.301 175.228 143.089 171.424C143.089 171.353 143.089 171.283 143.089 171.142C143.089 170.93 143.089 170.649 143.019 170.437C142.807 167.689 142.242 165.646 142.242 165.646L166.796 166.844C165.738 169.803 165.244 172.199 165.173 174.242C165.103 175.51 165.173 176.637 165.385 177.553C165.385 177.624 165.385 177.624 165.385 177.694C166.091 181.429 168.066 182.767 168.066 182.767Z" fill="white" stroke="#263238" stroke-miterlimit="10"/>
<path d="M113.173 238.64V241.247C113.173 242.093 113.808 242.727 114.655 242.727H193.749C194.595 242.727 195.23 242.093 195.23 241.247V238.64H113.173Z" fill="#757575" stroke="#263238" stroke-miterlimit="10" stroke-linecap="round" stroke-linejoin="round"/>
<path d="M204.897 200.1L194.737 238.077C194.525 238.852 193.89 239.486 193.114 239.838C192.832 239.979 192.549 239.979 192.267 239.979H116.066C115.784 239.979 115.501 239.908 115.219 239.838C114.443 239.556 113.808 238.852 113.596 238.077L103.436 200.1C103.154 199.043 103.789 198.198 104.847 198.198H203.556C204.544 198.198 205.179 199.043 204.897 200.1Z" fill="#BFBFBF" stroke="#263238" stroke-miterlimit="10"/>
<path d="M203.274 202.073L193.184 239.838C192.902 239.979 192.62 239.979 192.338 239.979H116.066C115.784 239.979 115.501 239.908 115.219 239.838L105.13 202.073C104.847 201.016 105.482 200.17 106.541 200.17H201.933C202.921 200.17 203.556 201.016 203.274 202.073Z" fill="#999999" stroke="#263238" stroke-miterlimit="10" stroke-linecap="round" stroke-linejoin="round"/>
<path d="M159.317 223.28C157.059 223.28 155.225 221.942 155.225 220.251C155.225 219.898 155.295 219.476 155.507 219.194C155.083 219.123 154.59 219.053 154.166 219.053C150.991 219.053 148.451 220.955 148.451 223.28C148.451 225.606 150.991 227.508 154.166 227.508C157.341 227.508 159.881 225.606 159.881 223.28C159.74 223.28 159.529 223.28 159.317 223.28Z" fill="#BFBFBF" stroke="#263238" stroke-miterlimit="10"/>
<path d="M166.796 166.914C165.738 169.873 165.244 172.269 165.174 174.312C162.492 176.99 159.247 178.963 155.648 178.399C150.427 177.553 146.123 173.749 143.019 170.508C142.807 167.76 142.243 165.716 142.243 165.716L166.796 166.914Z" fill="#263238"/>
<path d="M171.805 149.089C171.805 149.089 173.781 146.975 174.769 147.679C175.757 148.384 176.886 150.357 176.392 152.189C175.827 154.021 173.569 157.191 173.358 159.023C173.146 160.855 172.017 162.969 170.677 161.771C169.407 160.503 171.805 149.089 171.805 149.089Z" fill="white" stroke="#263238" stroke-miterlimit="10"/>
<path d="M136.527 149.089C136.527 149.089 134.552 146.975 133.564 147.679C132.576 148.384 131.447 150.357 131.941 152.189C132.506 154.021 134.763 157.191 134.975 159.023C135.187 160.855 136.316 162.969 137.656 161.771C138.997 160.503 136.527 149.089 136.527 149.089Z" fill="white" stroke="#263238" stroke-miterlimit="10"/>
<path d="M153.743 124.217C178.65 124.217 172.723 157.332 168.137 167.971C166.514 171.705 158.188 176.637 154.167 176.637C150.427 176.637 141.819 170.789 140.337 167.267C135.681 156.557 130.036 124.217 153.743 124.217Z" fill="white" stroke="#263238" stroke-miterlimit="10"/>
<path d="M157.977 150.639C157.977 150.639 164.327 149.441 166.443 151.977" stroke="#263238" stroke-miterlimit="10" stroke-linecap="round" stroke-linejoin="round"/>
<path d="M162.774 155.43C162.774 156.205 162.422 156.839 161.928 156.839C161.434 156.839 161.081 156.205 161.081 155.43C161.081 154.655 161.504 154.021 161.928 154.021C162.422 154.091 162.774 154.655 162.774 155.43Z" fill="#263238"/>
<path d="M150.356 150.639C150.356 150.639 144.5 150.145 141.89 151.977" stroke="#263238" stroke-miterlimit="10" stroke-linecap="round" stroke-linejoin="round"/>
<path d="M145.559 155.43C145.559 156.205 145.982 156.839 146.405 156.839C146.899 156.839 147.252 156.205 147.252 155.43C147.252 154.655 146.829 154.021 146.405 154.021C145.982 154.091 145.559 154.655 145.559 155.43Z" fill="#263238"/>
<path d="M164.045 132.672C164.045 132.672 155.084 136.054 144.853 132.672C144.853 132.672 141.466 132.46 140.196 134.151C138.856 135.842 140.196 141.056 140.549 143.17C140.902 145.284 137.656 146.763 138.08 152.118L136.81 153.95C136.81 153.95 133.282 145.354 134.199 137.886C135.116 130.488 139.773 127.599 139.773 127.599C139.773 127.599 141.89 121.187 154.449 121.258C167.925 121.328 169.336 128.585 169.336 128.585C169.336 128.585 178.509 134.715 171.735 154.584L170.254 152.118C170.254 152.118 170.959 148.102 168.56 144.579C167.361 142.888 169.266 137.674 168.843 135.067C168.278 132.46 164.045 132.672 164.045 132.672Z" fill="#263238"/>
<path d="M155.648 154.091C155.648 154.091 156.001 159.728 157.13 161.912C158.259 164.096 154.378 164.448 152.755 163.18" stroke="#263238" stroke-miterlimit="10" stroke-linecap="round" stroke-linejoin="round"/>
<path d="M149.369 167.619C149.369 168.464 152.191 169.592 155.013 169.592C157.835 169.592 159.882 168.394 159.529 167.971" stroke="#263238" stroke-miterlimit="10" stroke-linecap="round" stroke-linejoin="round"/>
<path d="M171.524 136.336C171.524 136.336 167.855 141.268 159.6 144.72V142.325C159.6 142.325 152.121 146.622 145.347 145.988L146.899 142.888C146.899 142.888 141.184 148.948 136.386 148.666C131.589 148.454 130.177 121.258 154.449 121.258C174.134 121.328 171.524 136.336 171.524 136.336Z" fill="#263238"/>
<path d="M167.431 137.956C167.431 137.956 166.161 145.143 172.935 150.427C172.935 150.427 176.957 146.129 175.404 137.956C173.852 129.783 170.324 129.572 170.324 129.572L167.431 137.956Z" fill="#263238"/>
<path opacity="0.2" d="M164.397 126.753C164.397 126.753 161.857 137.533 152.543 142.959" stroke="white" stroke-miterlimit="10"/>
<path opacity="0.2" d="M158.471 126.753C158.471 126.753 154.308 137.322 138.997 139.084" stroke="white" stroke-miterlimit="10"/>
<path opacity="0.2" d="M168.066 130.699C168.066 130.699 168.137 136.265 164.397 139.084" stroke="white" stroke-miterlimit="10"/>
<path d="M257.109 47.6294L264.094 34.1015" stroke="#263238" stroke-miterlimit="10" stroke-linecap="round" stroke-linejoin="round"/>
<path d="M264.094 55.0275L279.899 45.5861" stroke="#263238" stroke-miterlimit="10" stroke-linecap="round" stroke-linejoin="round"/>
<path d="M270.656 66.3712L284.344 65.4552" stroke="#263238" stroke-miterlimit="10" stroke-linecap="round" stroke-linejoin="round"/>
<path d="M46.2146 253.648H35.2783V244.277C35.2783 243.431 35.9839 242.727 36.8306 242.727H271.432C272.279 242.727 272.984 243.431 272.984 244.277V253.648" fill="white"/>
<path d="M46.2146 253.648H35.2783V244.277C35.2783 243.431 35.9839 242.727 36.8306 242.727H271.432C272.279 242.727 272.984 243.431 272.984 244.277V253.648" stroke="#263238" stroke-miterlimit="10"/>
<path d="M260.354 253.648H162.774" stroke="#263238" stroke-miterlimit="10"/>
<path d="M155.789 253.648H148.804" stroke="#263238" stroke-miterlimit="10"/>
<path d="M103.366 253.648H51.8594" stroke="#263238" stroke-miterlimit="10"/>
</g>
<defs>
<clipPath id="clip0">
<rect width="303.535" height="254" fill="white"/>
</clipPath>
</defs>
</svg>
