<svg width="255" height="254" viewBox="0 0 255 254" fill="none" xmlns="http://www.w3.org/2000/svg">
<g clip-path="url(#clip0)">
<path d="M70.2242 245.594C1.93956 219.259 19.9803 182.285 7.46344 133.378C-5.1122 84.4706 -3.70185 65.7777 26.8558 31.625C57.4722 -2.52773 110.184 -15.2248 147.852 25.2177C185.521 65.6014 220.368 61.7805 241.876 91.7597C263.384 121.739 259.388 157.302 220.486 182.403C181.583 207.503 154.375 278.101 70.2242 245.594Z" fill="#FABE4C"/>
<path opacity="0.7" d="M70.2242 245.594C1.93956 219.259 19.9803 182.285 7.46344 133.378C-5.1122 84.4706 -3.70185 65.7777 26.8558 31.625C57.4722 -2.52773 110.184 -15.2248 147.852 25.2177C185.521 65.6014 220.368 61.7805 241.876 91.7597C263.384 121.739 259.388 157.302 220.486 182.403C181.583 207.503 154.375 278.101 70.2242 245.594Z" fill="white"/>
<path d="M102.779 19.6922C102.779 17.8111 103.778 16.7531 105.541 16.7531C107.363 16.7531 108.303 17.8111 108.303 19.6922V25.7468C108.303 27.6278 107.304 28.6859 105.541 28.6859C103.72 28.6859 102.779 27.6278 102.779 25.7468V19.6922ZM104.66 25.8644C104.66 26.6873 105.012 27.04 105.6 27.04C106.188 27.04 106.54 26.7461 106.54 25.8644V19.5746C106.54 18.7517 106.188 18.399 105.6 18.399C105.012 18.399 104.66 18.6929 104.66 19.5746V25.8644Z" fill="#263238"/>
<path d="M111.3 16.9294V25.8643C111.3 26.6873 111.653 26.9812 112.24 26.9812C112.828 26.9812 113.181 26.6873 113.181 25.8643V16.9294H114.885V25.8056C114.885 27.6866 113.945 28.7447 112.182 28.7447C110.36 28.7447 109.479 27.6866 109.479 25.8056V16.9294H111.3Z" fill="#263238"/>
<path d="M119.997 28.5684C119.88 28.2744 119.821 28.0981 119.821 27.1576V25.2765C119.821 24.2184 119.469 23.807 118.646 23.807H117.999V28.5684H116.178V16.9294H118.94C120.82 16.9294 121.643 17.8111 121.643 19.6334V20.5739C121.643 21.7496 121.29 22.5137 120.468 22.9252V22.984C121.408 23.3955 121.702 24.2184 121.702 25.4529V27.2751C121.702 27.863 121.702 28.2744 121.878 28.6859H119.997V28.5684ZM117.999 18.5753V22.161H118.705C119.41 22.161 119.821 21.8671 119.821 20.9266V19.751C119.821 18.928 119.527 18.5753 118.881 18.5753H117.999Z" fill="#263238"/>
<path d="M124.875 16.9294H130.516V18.5753H128.577V28.5684H126.755V18.5753H124.816V16.9294H124.875Z" fill="#263238"/>
<path d="M133.161 21.8083H135.687V23.4543H133.161V26.8637H136.334V28.5096H131.339V16.9294H136.334V18.5753H133.161V21.8083Z" fill="#263238"/>
<path d="M143.327 28.5684H141.505L141.212 26.4522H138.978L138.685 28.5684H136.98L138.861 16.9294H141.564L143.327 28.5684ZM139.214 24.865H140.976L140.095 18.9868H140.036L139.214 24.865Z" fill="#263238"/>
<path d="M148.087 25.159L149.321 16.8706H151.848V28.5096H150.143V20.2212H150.085L148.851 28.5684H147.146L145.795 20.3388H145.736V28.5684H144.149V16.9294H146.676L148.087 25.159Z" fill="#263238"/>
<path d="M239.936 42.7938H31.4978C31.1452 42.7938 30.9102 43.0877 30.9102 43.3817C30.9102 43.7343 31.204 43.9695 31.4978 43.9695H239.995C240.348 43.9695 240.583 43.6756 240.583 43.3817C240.583 43.0877 240.289 42.7938 239.936 42.7938Z" fill="#263238"/>
<path d="M239.936 47.5552H14.8674C14.5148 47.5552 14.2798 47.8492 14.2798 48.1431C14.2798 48.4958 14.5736 48.7309 14.8674 48.7309H239.995C240.348 48.7309 240.583 48.437 240.583 48.1431C240.583 47.7904 240.289 47.5552 239.936 47.5552Z" fill="#263238"/>
<path d="M228.889 52.2578H14.8674C14.5148 52.2578 14.2798 52.5517 14.2798 52.8456C14.2798 53.1396 14.5736 53.4335 14.8674 53.4335H228.889C229.241 53.4335 229.476 53.1396 229.476 52.8456C229.476 52.5517 229.241 52.2578 228.889 52.2578Z" fill="#263238"/>
<path d="M239.936 60.311H31.4978C31.1452 60.311 30.9102 60.6049 30.9102 60.8989C30.9102 61.2516 31.204 61.4867 31.4978 61.4867H239.995C240.348 61.4867 240.583 61.1928 240.583 60.8989C240.583 60.5462 240.289 60.311 239.936 60.311Z" fill="#263238"/>
<path d="M239.936 65.0137H14.8674C14.5148 65.0137 14.2798 65.3076 14.2798 65.6015C14.2798 65.9542 14.5736 66.1893 14.8674 66.1893H239.995C240.348 66.1893 240.583 65.8954 240.583 65.6015C240.583 65.2488 240.289 65.0137 239.936 65.0137Z" fill="#263238"/>
<path d="M206.734 69.7163H14.8674C14.5148 69.7163 14.2798 70.0102 14.2798 70.3041C14.2798 70.6568 14.5736 70.892 14.8674 70.892H206.734C207.087 70.892 207.322 70.598 207.322 70.3041C207.322 70.0102 207.087 69.7163 206.734 69.7163Z" fill="#263238"/>
<path d="M28.6186 23.4543L22.9185 17.7524C22.7422 17.576 22.3896 17.576 22.2133 17.7524L16.5131 23.4543C16.3368 23.6306 16.4543 23.9246 16.6894 23.9246H18.0998C18.276 23.9246 18.3936 24.0421 18.3936 24.2185V28.0394C18.3936 28.2157 18.5111 28.3333 18.6874 28.3333H26.3268C26.5031 28.3333 26.6206 28.2157 26.6206 28.0394V24.2185C26.6206 24.0421 26.7382 23.9246 26.9145 23.9246H28.3248C28.6774 23.9246 28.7949 23.6306 28.6186 23.4543Z" stroke="#263238" stroke-miterlimit="10"/>
<path d="M238.408 24.2185V21.7496L236.528 21.5732C236.41 21.1618 236.293 20.8091 236.058 20.4564L237.233 19.0456L235.47 17.2821L234.06 18.4578C233.707 18.2814 233.355 18.1051 232.943 17.9875L232.767 16.1064H230.358L230.181 17.9875C229.77 18.1051 229.417 18.2226 229.065 18.4578L227.655 17.2821L225.892 19.0456L227.067 20.4564C226.891 20.8091 226.714 21.1618 226.597 21.5732L224.716 21.7496V24.2185L226.597 24.3948C226.714 24.8063 226.832 25.159 227.067 25.5117L225.892 26.9225L227.655 28.6859L229.065 27.5103C229.417 27.6866 229.77 27.863 230.181 27.9805L230.358 29.8616H232.826L233.002 27.9805C233.413 27.863 233.766 27.7454 234.119 27.5103L235.529 28.6859L237.292 26.9225L236.117 25.5117C236.293 25.159 236.469 24.8063 236.587 24.3948L238.408 24.2185ZM231.592 25.8644C230.005 25.8644 228.712 24.5712 228.712 22.984C228.712 21.3969 230.005 20.1037 231.592 20.1037C233.178 20.1037 234.471 21.3969 234.471 22.984C234.471 24.5712 233.178 25.8644 231.592 25.8644Z" stroke="#263238" stroke-miterlimit="10"/>
<path d="M120.879 218.378L127.402 222.022L133.925 218.378" stroke="#263238" stroke-miterlimit="10" stroke-linecap="round" stroke-linejoin="round"/>
<path d="M120.879 221.141L127.402 224.785L133.925 221.141" stroke="#263238" stroke-miterlimit="10" stroke-linecap="round" stroke-linejoin="round"/>
<path d="M120.879 223.903L127.402 227.548L133.925 223.903" stroke="#263238" stroke-miterlimit="10" stroke-linecap="round" stroke-linejoin="round"/>
<path d="M198.39 230.898H15.1613C14.5736 230.898 14.1035 230.428 14.1035 229.84V216.379C14.1035 215.791 14.5736 215.321 15.1613 215.321H20.9202" stroke="#263238" stroke-miterlimit="10" stroke-linecap="round" stroke-linejoin="round"/>
<path d="M226.068 230.898H207.146" stroke="#263238" stroke-miterlimit="10" stroke-linecap="round" stroke-linejoin="round"/>
<path d="M44.3672 215.321H239.642C240.23 215.321 240.7 215.791 240.7 216.379V229.84C240.7 230.428 240.23 230.898 239.642 230.898H229.241" stroke="#263238" stroke-miterlimit="10" stroke-linecap="round" stroke-linejoin="round"/>
<path d="M25.5625 215.321H37.5505" stroke="#263238" stroke-miterlimit="10" stroke-linecap="round" stroke-linejoin="round"/>
<path d="M240.7 173.409H169.066V203.506C169.066 204.916 170.241 206.092 171.652 206.092H238.114C239.525 206.092 240.7 204.916 240.7 203.506V173.409Z" fill="#263238" stroke="#263238" stroke-miterlimit="10" stroke-linecap="round" stroke-linejoin="round"/>
<path d="M240.7 173.409H169.066V86.4105C169.066 84.9997 170.241 83.8241 171.652 83.8241H238.114C239.525 83.8241 240.7 84.9997 240.7 86.4105V173.409Z" fill="white" stroke="#263238" stroke-miterlimit="10" stroke-linecap="round" stroke-linejoin="round"/>
<path d="M178.116 132.555C178.41 129.675 190.457 125.854 204.854 125.677C218.311 125.56 231.18 130.027 232.943 132.966C234.706 135.906 229.418 173.527 229.418 173.527H181.407C181.466 173.527 177.235 141.372 178.116 132.555Z" fill="#263238"/>
<path d="M213.551 126.912C213.551 126.912 211.2 131.673 205.206 131.673C200.27 131.673 196.686 127.382 196.686 127.382C198.39 125.854 198.507 122.973 198.272 120.681C198.096 118.859 197.626 117.389 197.626 117.389H212.376C211.494 120.328 211.494 122.444 211.847 123.914C212.317 126.148 213.551 126.912 213.551 126.912Z" fill="#BFBFBF" stroke="#263238" stroke-miterlimit="10"/>
<path d="M234.53 153.717C234.53 153.717 230.945 169.177 228.301 173.527L173.532 173.468C173.532 173.468 176.47 169.353 178.704 167.942C180.878 166.473 188.458 168.648 189.928 168.648C191.397 168.648 217.371 164.474 218.37 164.18C219.369 163.827 222.542 151.718 222.542 151.718C222.542 151.718 231.709 152.071 234.53 153.717Z" fill="#BFBFBF"/>
<path opacity="0.15" d="M234.53 153.717C234.53 153.717 233.002 160.359 231.18 166.12C229.711 165.062 227.361 164.18 223.776 164.592C216.313 165.473 211.318 166.473 211.318 166.473C211.318 166.473 203.855 169.823 201.563 173.409L173.532 173.35C173.532 173.35 176.47 169.235 178.704 167.825C180.878 166.355 188.458 168.53 189.928 168.53C191.397 168.53 217.371 164.356 218.37 164.063C219.31 163.769 222.248 152.6 222.483 151.659C226.068 151.836 229.418 152.247 232.062 152.776C233.061 153.07 233.942 153.364 234.53 153.717Z" fill="black"/>
<path d="M234.53 153.717C234.53 153.717 230.945 169.177 228.301 173.527L173.532 173.468C173.532 173.468 176.47 169.353 178.704 167.942C180.878 166.473 188.458 168.648 189.928 168.648C191.397 168.648 217.371 164.474 218.37 164.18C219.369 163.827 222.542 151.718 222.542 151.718C222.542 151.718 231.709 152.071 234.53 153.717Z" stroke="#263238" stroke-miterlimit="10" stroke-linecap="round" stroke-linejoin="round"/>
<path d="M225.656 137.258C223.541 138.903 221.484 145.664 221.484 145.664L220.779 153.776C220.779 153.776 230.828 155.069 234.06 159.654C234.06 159.654 234.353 158.243 234.06 157.596C234.06 157.596 236.528 152.659 237.821 145.899C239.113 139.197 234.882 132.673 231.65 131.673" fill="#263238"/>
<path d="M225.656 137.258C223.541 138.903 221.484 145.663 221.484 145.663L220.779 153.776" fill="#263238"/>
<path d="M225.656 137.258C223.541 138.903 221.484 145.663 221.484 145.663L220.779 153.776" stroke="white" stroke-miterlimit="10" stroke-linecap="round" stroke-linejoin="round"/>
<path d="M229.417 152.13C230.534 152.012 233.649 153.129 234.177 153.952C234.706 154.775 235.294 155.892 234.53 156.538C234.53 156.538 234.883 157.596 234.883 158.302C234.883 159.007 233.825 159.36 233.825 159.36C233.825 159.36 234.412 160.594 233.002 161.417C233.002 161.417 233.296 162.769 232.179 163.357L231.592 162.946C231.592 162.946 227.89 163.475 226.068 162.946" fill="#BFBFBF"/>
<path d="M229.417 152.13C230.534 152.012 233.649 153.129 234.177 153.952C234.706 154.775 235.294 155.892 234.53 156.538C234.53 156.538 234.883 157.596 234.883 158.302C234.883 159.007 233.825 159.36 233.825 159.36C233.825 159.36 234.412 160.594 233.002 161.417C233.002 161.417 233.296 162.769 232.179 163.357L231.592 162.946C231.592 162.946 227.89 163.475 226.068 162.946" stroke="#263238" stroke-miterlimit="10" stroke-linecap="round" stroke-linejoin="round"/>
<path d="M229.888 156.891C230.064 156.48 230.417 156.127 230.593 155.774C231.004 155.128 229.711 154.598 230.064 154.128C231.063 152.953 230.005 152.365 230.005 152.365C229.594 151.248 222.483 153.482 222.072 152.13C221.426 150.249 225.245 146.604 222.953 144.664C222.601 144.37 222.19 146.957 219.251 149.484C217.723 150.778 217.723 154.481 214.844 156.127C211.964 157.773 206.088 159.83 199.859 160.536C196.392 160.888 190.574 162.652 190.574 162.652C190.574 162.652 190.515 157.949 189.281 155.304C188.047 152.6 179.526 151.13 179.526 151.13L176.353 157.596C176.353 157.596 179.82 170 181.466 173.527L194.511 173.35C194.511 173.35 199.389 171.704 204.149 169.235C209.673 166.355 216.666 164.474 218.37 164.18C220.133 163.827 227.243 163.298 228.242 162.769C228.477 162.652 229.418 162.123 228.947 160.829C228.654 160.065 229.418 159.419 229.418 159.419" fill="#BFBFBF"/>
<path d="M229.888 156.891C230.064 156.48 230.417 156.127 230.593 155.774C231.004 155.128 229.711 154.598 230.064 154.128C231.063 152.953 230.005 152.365 230.005 152.365C229.594 151.248 222.483 153.482 222.072 152.13C221.426 150.249 225.245 146.604 222.953 144.664C222.601 144.37 222.19 146.957 219.251 149.484C217.723 150.778 217.723 154.481 214.844 156.127C211.964 157.773 206.088 159.83 199.859 160.536C196.392 160.888 190.574 162.652 190.574 162.652C190.574 162.652 190.515 157.949 189.281 155.304C188.047 152.6 179.526 151.13 179.526 151.13L176.353 157.596C176.353 157.596 179.82 170 181.466 173.527L194.511 173.35C194.511 173.35 199.389 171.704 204.149 169.235C209.673 166.355 216.666 164.474 218.37 164.18C220.133 163.827 227.243 163.298 228.242 162.769C228.477 162.652 229.418 162.123 228.947 160.829C228.654 160.065 229.418 159.419 229.418 159.419" stroke="#263238" stroke-miterlimit="10" stroke-linecap="round" stroke-linejoin="round"/>
<path d="M234.53 156.538C234.53 156.538 233.413 155.48 233.178 155.304C232.943 155.186 230.945 154.657 230.945 154.657" stroke="#263238" stroke-miterlimit="10" stroke-linecap="round" stroke-linejoin="round"/>
<path d="M233.825 159.36C233.825 159.36 233.355 158.361 232.591 158.125C231.827 157.89 230.652 157.714 230.652 157.714" stroke="#263238" stroke-miterlimit="10" stroke-linecap="round" stroke-linejoin="round"/>
<path d="M233.002 161.358C233.002 161.358 231.886 160.653 231.416 160.418C230.945 160.183 229.888 160.065 229.888 160.065" stroke="#263238" stroke-miterlimit="10" stroke-linecap="round" stroke-linejoin="round"/>
<path d="M179.879 130.674C179.879 130.674 174.59 130.733 173.18 141.196C172.357 146.957 175.06 156.421 175.354 158.302C175.706 160.183 177.293 161.182 177.293 161.182C177.293 161.182 183.64 157.185 189.869 157.42C189.869 157.42 190.985 154.128 189.869 153.776C188.752 153.423 190.985 147.074 188.458 142.607" fill="#263238"/>
<path d="M190.456 156.303C190.456 156.303 191.573 153.011 190.456 152.659C189.34 152.306 191.573 145.957 189.046 141.49" fill="#263238"/>
<path d="M190.456 156.303C190.456 156.303 191.573 153.011 190.456 152.659C189.34 152.306 191.573 145.957 189.046 141.49" stroke="white" stroke-miterlimit="10" stroke-linecap="round" stroke-linejoin="round"/>
<path d="M211.788 123.973C201.152 126.735 199.036 120.681 199.036 120.681L198.213 120.74C198.037 118.917 197.567 117.448 197.567 117.448H212.317C211.435 120.387 211.435 122.503 211.788 123.973Z" fill="#263238"/>
<path d="M215.549 107.102C215.549 107.102 216.724 105.809 217.312 106.22C217.899 106.632 218.605 107.866 218.252 108.924C217.958 110.041 216.548 111.922 216.43 113.039C216.313 114.156 215.608 115.39 214.844 114.685C214.08 113.98 215.549 107.102 215.549 107.102Z" fill="#BFBFBF" stroke="#263238" stroke-miterlimit="10"/>
<path d="M194.393 107.102C194.393 107.102 193.218 105.809 192.63 106.22C192.043 106.632 191.338 107.866 191.69 108.924C191.984 110.041 193.394 111.922 193.512 113.039C193.629 114.156 194.335 115.39 195.099 114.685C195.863 113.98 194.393 107.102 194.393 107.102Z" fill="#BFBFBF" stroke="#263238" stroke-miterlimit="10"/>
<path d="M204.677 92.1713C219.604 92.1713 216.078 112.04 213.316 118.447C212.375 120.681 207.38 123.62 204.912 123.62C202.679 123.62 197.508 120.093 196.627 117.977C193.865 111.57 190.456 92.1713 204.677 92.1713Z" fill="#BFBFBF" stroke="#263238" stroke-miterlimit="10"/>
<path d="M207.204 104.457C207.204 104.457 211.083 103.281 212.317 105.633" stroke="#263238" stroke-miterlimit="10" stroke-linecap="round" stroke-linejoin="round"/>
<path d="M210.084 107.69C210.084 108.16 209.849 108.513 209.555 108.513C209.261 108.513 209.026 108.16 209.026 107.69C209.026 107.22 209.261 106.867 209.555 106.867C209.849 106.867 210.084 107.278 210.084 107.69Z" fill="#263238"/>
<path d="M202.679 104.457C202.679 104.457 198.801 103.281 197.567 105.633" stroke="#263238" stroke-miterlimit="10" stroke-linecap="round" stroke-linejoin="round"/>
<path d="M199.8 107.69C199.8 108.16 200.035 108.513 200.329 108.513C200.623 108.513 200.858 108.16 200.858 107.69C200.858 107.22 200.623 106.867 200.329 106.867C200.035 106.867 199.8 107.278 199.8 107.69Z" fill="#263238"/>
<path d="M210.906 97.2266C210.906 97.2266 205.558 99.2252 199.388 97.2266C199.388 97.2266 197.39 97.109 196.567 98.1083C195.745 99.1076 196.567 102.223 196.803 103.516C197.038 104.81 195.04 105.691 195.333 108.866L194.569 109.982C194.569 109.982 192.454 104.81 192.983 100.342C193.512 95.8746 196.332 94.1699 196.332 94.1699C196.332 94.1699 197.625 90.349 205.147 90.349C213.257 90.4078 214.079 94.7577 214.079 94.7577C214.079 94.7577 219.545 98.4022 215.49 110.335L214.608 108.866C214.608 108.866 215.02 106.455 213.609 104.339C212.904 103.281 214.021 100.224 213.786 98.6374C213.433 97.109 210.906 97.2266 210.906 97.2266Z" fill="#263238"/>
<path d="M205.853 106.867C205.853 106.867 206.088 111.452 206.734 112.745C207.381 114.038 205.089 114.274 204.09 113.509" stroke="#263238" stroke-miterlimit="10" stroke-linecap="round" stroke-linejoin="round"/>
<path d="M201.68 115.978C201.68 115.978 202.033 117.33 203.091 117.742C204.09 118.153 207.204 117.977 207.792 117.624C208.379 117.271 208.673 116.037 208.673 116.037" fill="white"/>
<path d="M201.68 115.978C201.68 115.978 202.033 117.33 203.091 117.742C204.09 118.153 207.204 117.977 207.792 117.624C208.379 117.271 208.673 116.037 208.673 116.037" stroke="#263238" stroke-miterlimit="10" stroke-linecap="round" stroke-linejoin="round"/>
<path d="M201.328 115.861C201.328 115.861 204.442 116.742 209.026 115.861" stroke="#263238" stroke-miterlimit="10" stroke-linecap="round" stroke-linejoin="round"/>
<path d="M208.321 97.8732C208.321 97.8732 206.617 97.932 206.558 98.6374C206.499 99.3428 206.499 100.46 204.912 100.048C204.912 100.048 204.383 101.4 203.032 100.401C201.739 99.4603 201.328 100.754 201.328 100.754C201.328 100.754 200.74 100.754 200.799 100.048C200.799 100.048 199.33 99.8718 199.33 100.754C199.33 101.635 197.038 102.282 197.038 101.4C197.038 101.4 196.627 103.458 195.216 102.987C193.747 102.576 193.042 104.868 193.042 104.868C193.042 104.868 192.102 103.34 192.807 102.106C192.807 102.106 191.514 100.812 191.867 99.4015C192.219 97.9908 192.807 97.0502 192.807 97.0502C192.807 97.0502 191.514 94.9341 193.336 93.9348C195.216 92.9354 194.864 92.3476 194.864 92.1125C194.864 91.8774 195.686 90.2902 197.155 90.7605C198.625 91.2895 199.095 89.4673 200.27 89.0558C201.445 88.7031 203.62 88.7619 204.031 89.0558C204.442 89.3497 205.206 89.5848 205.794 89.3497C206.323 89.1146 207.968 88.7031 208.262 89.2909C208.556 89.8787 209.202 90.1727 209.731 90.349C210.319 90.4666 210.848 89.6436 211.435 90.349C212.082 91.1132 208.321 97.8732 208.321 97.8732Z" fill="#263238"/>
<path d="M208.321 97.8732C209.907 97.5205 210.378 98.6374 210.495 99.4603C210.613 100.283 211.964 100.401 211.964 100.401C211.964 100.401 212.669 100.871 212.669 101.106C212.669 101.341 213.022 100.989 213.022 100.107C213.022 100.107 213.375 101.577 213.492 102.399C213.668 103.222 214.609 103.928 215.725 103.399C216.842 102.87 216.724 104.516 216.724 104.516C216.724 104.516 217.723 103.869 217.253 102.517C217.253 102.517 218.252 100.989 217.841 99.6955C217.429 98.4023 218.546 97.1678 217.488 96.2861C216.372 95.4043 216.489 95.5807 216.43 94.9929C216.372 94.405 216.548 93.5233 215.725 93.2882C214.961 93.053 213.903 92.6415 213.903 92.2301C213.903 91.7598 212.669 90.7017 210.554 91.4659C208.497 92.2301 208.321 97.8732 208.321 97.8732Z" fill="#263238"/>
<path d="M202.679 178.934H175.295C174.707 178.934 174.237 179.405 174.237 179.993C174.237 180.58 174.707 181.051 175.295 181.051H202.679C203.267 181.051 203.737 180.58 203.737 179.993C203.737 179.405 203.267 178.934 202.679 178.934Z" fill="white"/>
<path d="M234.941 187.752H174.825C174.472 187.752 174.237 188.046 174.237 188.34C174.237 188.692 174.531 188.927 174.825 188.927H234.941C235.294 188.927 235.529 188.634 235.529 188.34C235.529 188.046 235.294 187.752 234.941 187.752Z" fill="white"/>
<path d="M223.893 190.75H174.825C174.472 190.75 174.237 191.044 174.237 191.338C174.237 191.69 174.531 191.925 174.825 191.925H223.893C224.246 191.925 224.481 191.632 224.481 191.338C224.481 191.044 224.187 190.75 223.893 190.75Z" fill="white"/>
<path d="M190.691 182.99H174.884C174.531 182.99 174.296 183.284 174.296 183.578C174.296 183.931 174.59 184.166 174.884 184.166H190.691C191.044 184.166 191.279 183.872 191.279 183.578C191.279 183.284 190.985 182.99 190.691 182.99Z" fill="white"/>
<path d="M233.472 200.096H234.941C235.294 200.096 235.588 199.802 235.588 199.45V197.98C235.588 197.627 235.294 197.333 234.941 197.333H233.472C233.119 197.333 232.826 197.627 232.826 197.98V199.45C232.884 199.802 233.119 200.096 233.472 200.096Z" fill="white"/>
<path d="M227.948 200.096H229.417C229.77 200.096 230.064 199.802 230.064 199.45V197.98C230.064 197.627 229.77 197.333 229.417 197.333H227.948C227.596 197.333 227.302 197.627 227.302 197.98V199.45C227.302 199.802 227.596 200.096 227.948 200.096Z" fill="white"/>
<path d="M222.424 200.096H223.893C224.246 200.096 224.54 199.802 224.54 199.45V197.98C224.54 197.627 224.246 197.333 223.893 197.333H222.424C222.072 197.333 221.778 197.627 221.778 197.98V199.45C221.778 199.802 222.072 200.096 222.424 200.096Z" fill="white"/>
<path d="M163.248 173.409H91.6143V203.506C91.6143 204.916 92.7896 206.092 94.1999 206.092H160.663C162.073 206.092 163.248 204.916 163.248 203.506V173.409Z" fill="#263238" stroke="#263238" stroke-miterlimit="10" stroke-linecap="round" stroke-linejoin="round"/>
<path d="M125.227 178.934H97.8429C97.2553 178.934 96.7852 179.405 96.7852 179.993C96.7852 180.58 97.2553 181.051 97.8429 181.051H125.227C125.815 181.051 126.285 180.58 126.285 179.993C126.285 179.405 125.815 178.934 125.227 178.934Z" fill="white"/>
<path d="M157.489 187.752H97.3728C97.0202 187.752 96.7852 188.046 96.7852 188.34C96.7852 188.692 97.079 188.927 97.3728 188.927H157.489C157.842 188.927 158.077 188.634 158.077 188.34C158.077 188.046 157.783 187.752 157.489 187.752Z" fill="white"/>
<path d="M146.383 190.75H97.3142C96.9616 190.75 96.7266 191.044 96.7266 191.338C96.7266 191.69 97.0204 191.925 97.3142 191.925H146.383C146.735 191.925 146.97 191.632 146.97 191.338C146.97 191.044 146.735 190.75 146.383 190.75Z" fill="white"/>
<path d="M113.181 182.99H97.3728C97.0202 182.99 96.7852 183.284 96.7852 183.578C96.7852 183.931 97.079 184.166 97.3728 184.166H113.181C113.533 184.166 113.768 183.872 113.768 183.578C113.768 183.284 113.533 182.99 113.181 182.99Z" fill="white"/>
<path d="M156.02 200.096H157.49C157.842 200.096 158.136 199.802 158.136 199.45V197.98C158.136 197.627 157.842 197.333 157.49 197.333H156.02C155.668 197.333 155.374 197.627 155.374 197.98V199.45C155.374 199.802 155.668 200.096 156.02 200.096Z" fill="white"/>
<path d="M150.437 200.096H151.907C152.259 200.096 152.553 199.802 152.553 199.45V197.98C152.553 197.627 152.259 197.333 151.907 197.333H150.437C150.085 197.333 149.791 197.627 149.791 197.98V199.45C149.85 199.802 150.144 200.096 150.437 200.096Z" fill="white"/>
<path d="M144.914 200.096H146.383C146.735 200.096 147.029 199.802 147.029 199.45V197.98C147.029 197.627 146.735 197.333 146.383 197.333H144.914C144.561 197.333 144.267 197.627 144.267 197.98V199.45C144.326 199.802 144.561 200.096 144.914 200.096Z" fill="white"/>
<path d="M163.248 173.409H91.6143V86.4105C91.6143 84.9997 92.7896 83.8241 94.1999 83.8241H160.663C162.073 83.8241 163.248 84.9997 163.248 86.4105V173.409Z" fill="white" stroke="#263238" stroke-miterlimit="10" stroke-linecap="round" stroke-linejoin="round"/>
<path d="M137.745 111.687C138.215 120.211 138.626 124.972 139.508 132.085C140.389 139.139 139.919 146.839 128.989 149.896C118.059 152.953 106.012 145.076 105.542 140.02C105.13 134.965 109.185 122.915 108.186 113.333C107.187 103.751 115.943 96.5211 122.936 96.9326C129.929 97.4029 137.392 105.985 137.745 111.687Z" fill="#FABE4C" stroke="#263238" stroke-miterlimit="10" stroke-linecap="round" stroke-linejoin="round"/>
<path d="M131.692 123.914C131.692 123.914 131.045 132.672 133.866 138.492" stroke="#263238" stroke-miterlimit="10" stroke-linecap="round" stroke-linejoin="round"/>
<path d="M111.829 120.211C111.829 120.211 113.533 128.969 109.949 137.787" stroke="#263238" stroke-miterlimit="10" stroke-linecap="round" stroke-linejoin="round"/>
<path d="M116.001 127.382C116.001 127.382 116.354 134.142 115.179 140.02" stroke="#263238" stroke-miterlimit="10" stroke-linecap="round" stroke-linejoin="round"/>
<path d="M133.925 116.684C133.925 116.684 134.336 122.679 135.864 125.266" stroke="#263238" stroke-miterlimit="10" stroke-linecap="round" stroke-linejoin="round"/>
<path d="M162.896 168.765C162.191 167.648 161.486 166.59 160.663 165.885C158.606 164.004 150.497 141.666 146.148 138.551L142.27 158.772C143.269 160.536 146.324 164.592 146.148 165.473C145.972 166.355 147.852 167.648 147.852 167.648C146.971 169.059 148.734 173.468 148.734 173.468H162.896V168.765Z" fill="#999999"/>
<path opacity="0.15" d="M161.309 173.409H148.792C148.792 173.409 147.029 169 147.911 167.589C147.911 167.589 146.089 166.296 146.207 165.415C146.383 164.533 143.327 160.477 142.328 158.713L144.267 148.661L145.384 147.427C145.384 147.427 146.442 150.013 146.207 151.659C146.207 151.659 147.323 150.66 147.499 149.308C147.499 149.308 151.319 158.478 150.379 163.298C150.379 163.298 156.314 162.064 160.251 165.238C160.251 165.238 156.255 164.415 155.374 165.238C155.374 165.238 161.544 165.356 161.309 173.409Z" fill="black"/>
<path d="M162.896 168.765C162.191 167.648 161.486 166.59 160.663 165.885C158.606 164.004 150.497 141.666 146.148 138.551L142.27 158.772C143.269 160.536 146.324 164.592 146.148 165.473C145.972 166.355 147.852 167.648 147.852 167.648C146.971 169.059 148.734 173.468 148.734 173.468H162.896V168.765Z" stroke="#263238" stroke-miterlimit="10" stroke-linecap="round" stroke-linejoin="round"/>
<path d="M136.452 135.083C136.452 135.083 127.813 140.02 123.876 140.02C119.939 140.02 108.95 134.965 108.95 134.965C112.417 134.612 116.765 133.025 117.588 131.144C117.999 130.204 117.764 127.029 117.412 124.267C117.059 121.739 116.707 119.505 116.707 119.505L129.752 121.269C129.752 121.269 129.165 124.325 128.988 127.323C128.93 128.675 128.93 130.027 129.106 131.027C129.752 134.318 136.452 135.083 136.452 135.083Z" fill="white" stroke="#263238" stroke-miterlimit="10" stroke-linecap="round" stroke-linejoin="round"/>
<path d="M147.852 140.902C147.441 137.845 140.741 135.964 140.741 135.964L137.862 134.083C137.862 134.083 128.107 138.845 124.287 139.139C120.468 139.433 108.95 134.083 108.95 134.083L106.423 135.964C106.423 135.964 99.7236 136.611 97.8432 139.139C96.0215 141.666 104.895 173.409 104.895 173.409H140.741C140.741 173.409 142.328 166.59 144.855 160.477C146.618 156.244 143.327 153.246 145.854 145.781" fill="#999999"/>
<path opacity="0.15" d="M144.855 160.477C142.328 166.59 140.741 173.409 140.741 173.409H104.895C104.895 173.409 102.603 165.238 100.605 156.891L106.305 146.193C106.305 146.193 109.596 147.956 109.302 149.543C109.302 149.543 112.064 159.83 116.06 160.535C120.056 161.241 124.699 157.89 131.045 159.066C137.215 160.183 142.798 160.947 145.384 156.773C145.442 158.008 145.384 159.183 144.855 160.477Z" fill="black"/>
<path d="M147.852 140.902C147.441 137.845 140.741 135.964 140.741 135.964L137.862 134.083C137.862 134.083 128.107 138.845 124.287 139.139C120.468 139.433 108.95 134.083 108.95 134.083L106.423 135.964C106.423 135.964 99.7236 136.611 97.8432 139.139C96.0215 141.666 104.895 173.409 104.895 173.409H140.741C140.741 173.409 142.328 166.59 144.855 160.477C146.618 156.244 143.327 153.246 145.854 145.781" stroke="#263238" stroke-miterlimit="10" stroke-linecap="round" stroke-linejoin="round"/>
<path d="M135.453 129.792C135.453 129.792 136.452 133.613 138.273 137.845C141.388 145.076 139.801 151.072 139.801 151.072C139.801 151.072 141.682 151.659 141.799 149.073C141.917 146.486 142.504 143.43 141.153 139.139C141.153 139.139 143.445 142.489 142.916 148.015C142.916 148.015 144.267 143.43 142.328 137.61C140.389 131.791 140.036 131.673 138.802 126.089" fill="#FABE4C"/>
<path d="M135.453 129.792C135.453 129.792 136.452 133.613 138.273 137.845C141.388 145.076 139.801 151.072 139.801 151.072C139.801 151.072 141.682 151.659 141.799 149.073C141.917 146.486 142.504 143.43 141.153 139.139C141.153 139.139 143.445 142.489 142.916 148.015C142.916 148.015 144.267 143.43 142.328 137.61C140.389 131.791 140.036 131.673 138.802 126.089" stroke="#263238" stroke-miterlimit="10" stroke-linecap="round" stroke-linejoin="round"/>
<path d="M140.8 169.647C140.8 169.647 143.739 166.061 145.737 165.885C147.735 165.65 148.498 166.12 149.909 167.178C150.79 167.883 150.79 167.883 150.79 167.883C150.79 167.883 152.259 166.414 155.256 166.531C158.9 166.649 162.602 169.941 161.603 173.35H141.447L140.8 169.647Z" fill="white"/>
<path opacity="0.15" d="M159.253 173.291H152.201C151.731 172.057 151.79 170.352 151.496 169.999C151.143 169.529 150.614 169.47 150.144 169.177C149.674 168.883 149.674 167.589 149.086 167.295C148.499 167.002 147.852 167.119 147.617 167.002C147.382 166.884 147.5 166.002 146.912 165.826C148.029 165.885 148.734 166.355 149.792 167.178C150.673 167.883 150.673 167.883 150.673 167.883C150.673 167.883 151.437 167.119 152.906 166.766C158.077 168.53 159.076 171.704 159.253 173.291Z" fill="black"/>
<path d="M140.8 169.647C140.8 169.647 143.739 166.061 145.737 165.885C147.735 165.65 148.498 166.12 149.909 167.178C150.79 167.883 150.79 167.883 150.79 167.883C150.79 167.883 152.259 166.414 155.256 166.531C158.9 166.649 162.602 169.941 161.603 173.35H141.447L140.8 169.647Z" stroke="#263238" stroke-miterlimit="10" stroke-linecap="round" stroke-linejoin="round"/>
<path d="M116.001 165.885C123.347 166.12 128.988 168.647 134.924 168.941C140.8 169.294 143.738 169.353 145.619 168.941C147.499 168.53 152.729 173.409 152.729 173.409H114.532L106.952 170.999L111.124 166.414L116.001 165.885Z" fill="white" stroke="#263238" stroke-miterlimit="10" stroke-linecap="round" stroke-linejoin="round"/>
<path d="M102.251 140.02C106.775 142.842 112.652 165.121 113.71 164.885C114.767 164.65 116.002 165.885 116.002 165.885C116.002 165.885 114.591 170.411 114.474 173.468H105.189C105.189 173.468 100.429 173.644 99.0773 166.708C96.4329 153.305 95.1401 140.608 97.902 139.197" fill="#999999"/>
<path d="M102.251 140.02C106.775 142.842 112.652 165.121 113.71 164.885C114.767 164.65 116.002 165.885 116.002 165.885C116.002 165.885 114.591 170.411 114.474 173.468H105.189C105.189 173.468 100.429 173.644 99.0773 166.708C96.4329 153.305 95.1401 140.608 97.902 139.197" stroke="#263238" stroke-miterlimit="10" stroke-linecap="round" stroke-linejoin="round"/>
<path d="M150.79 167.883C150.79 167.883 153.023 169.706 153.493 171.293" stroke="#263238" stroke-miterlimit="10" stroke-linecap="round" stroke-linejoin="round"/>
<path d="M143.68 169.177C143.68 169.177 146.265 167.942 146.559 167.883" stroke="#263238" stroke-miterlimit="10" stroke-linecap="round" stroke-linejoin="round"/>
<path d="M147.676 169.588L148.44 169.177" stroke="#263238" stroke-miterlimit="10" stroke-linecap="round" stroke-linejoin="round"/>
<path d="M129.752 121.269C129.752 121.269 129.165 124.325 128.988 127.323C127.813 128.029 126.461 128.44 124.992 128.205C119.939 127.558 118.234 123.679 118.234 123.679L117.412 124.208C117.059 121.68 116.707 119.446 116.707 119.446L129.752 121.269Z" fill="#263238"/>
<path d="M112.769 111.805C112.769 111.805 111.594 110.57 111.006 110.982C110.419 111.393 109.714 112.51 110.066 113.568C110.36 114.626 111.77 116.39 111.888 117.448C112.005 118.506 112.711 119.682 113.475 118.976C114.239 118.271 112.769 111.805 112.769 111.805Z" fill="white" stroke="#263238" stroke-miterlimit="10" stroke-linecap="round" stroke-linejoin="round"/>
<path d="M133.925 111.805C133.925 111.805 135.1 110.57 135.688 110.982C136.275 111.393 136.981 112.51 136.628 113.568C136.334 114.626 134.924 116.39 134.806 117.448C134.689 118.506 133.984 119.682 133.22 118.976C132.456 118.271 133.925 111.805 133.925 111.805Z" fill="white" stroke="#263238" stroke-miterlimit="10" stroke-linecap="round" stroke-linejoin="round"/>
<path d="M123.641 96.9914C108.715 96.9914 112.77 115.038 115.473 121.445C116.413 123.679 121.173 126.853 123.641 126.853C125.874 126.853 130.399 123.914 131.281 121.798C134.043 115.332 137.862 96.9914 123.641 96.9914Z" fill="white" stroke="#263238" stroke-miterlimit="10" stroke-linecap="round" stroke-linejoin="round"/>
<path d="M121.114 109.218C121.114 109.218 117.236 108.043 116.001 110.394" stroke="#263238" stroke-miterlimit="10" stroke-linecap="round" stroke-linejoin="round"/>
<path d="M118.705 113.333C118.997 113.333 119.234 112.965 119.234 112.51C119.234 112.056 118.997 111.687 118.705 111.687C118.413 111.687 118.176 112.056 118.176 112.51C118.176 112.965 118.413 113.333 118.705 113.333Z" fill="#263238"/>
<path d="M125.639 109.218C125.639 109.218 129.517 108.043 130.751 110.394" stroke="#263238" stroke-miterlimit="10" stroke-linecap="round" stroke-linejoin="round"/>
<path d="M127.989 113.333C128.281 113.333 128.518 112.965 128.518 112.51C128.518 112.056 128.281 111.687 127.989 111.687C127.697 111.687 127.46 112.056 127.46 112.51C127.46 112.965 127.697 113.333 127.989 113.333Z" fill="#263238"/>
<path d="M124.346 111.863C123.818 113.039 125.463 116.507 124.875 117.095C124.288 117.683 123.406 117.683 123.406 117.683" fill="white"/>
<path d="M124.346 111.863C123.818 113.039 125.463 116.507 124.875 117.095C124.288 117.683 123.406 117.683 123.406 117.683" stroke="#263238" stroke-miterlimit="10" stroke-linecap="round" stroke-linejoin="round"/>
<path d="M127.167 119.152C127.167 119.152 123.524 120.681 120.233 119.152H127.167Z" fill="white"/>
<path d="M127.167 119.152C127.167 119.152 123.524 120.681 120.233 119.152" stroke="#263238" stroke-miterlimit="10" stroke-linecap="round" stroke-linejoin="round"/>
<path d="M121.114 99.5191C121.114 99.5191 120.644 106.926 118.587 107.866C118.058 108.101 117.412 107.749 116.354 108.689C116.354 108.689 116.824 107.572 116.824 106.044C116.824 106.044 116.06 110.629 110.83 115.038C109.42 116.213 108.421 116.037 108.303 115.038C107.716 108.16 108.303 94.9928 121.467 94.1698C121.467 94.1698 129.106 91.3483 133.925 98.9312C136.687 103.34 137.686 107.925 137.745 111.863C137.745 112.157 136.981 114.097 136.981 114.097C136.981 114.097 137.274 117.448 136.746 119.152C136.746 119.152 134.277 112.275 132.279 110.394C130.928 109.159 131.104 106.573 130.105 105.339C130.105 105.339 130.399 106.926 129.4 107.631C128.812 107.984 127.578 107.455 126.521 107.455C125.639 107.455 124.993 107.925 124.993 107.925C124.993 107.925 124.758 102.752 121.114 99.5191Z" fill="#FABE4C"/>
<path d="M110.008 116.155C110.008 116.155 110.184 115.567 110.831 115.038C115.943 110.57 116.825 106.044 116.825 106.044C116.825 107.631 116.354 108.689 116.354 108.689C117.412 107.749 118.059 108.16 118.587 107.866C120.644 106.926 121.114 99.519 121.114 99.519C124.817 102.752 124.993 107.925 124.993 107.925C124.993 107.925 125.639 107.455 126.521 107.455C127.52 107.455 128.813 107.984 129.4 107.631C130.458 106.984 130.105 105.339 130.105 105.339C131.104 106.632 130.928 109.159 132.28 110.394C133.514 111.511 134.924 114.567 135.806 116.742" stroke="#263238" stroke-miterlimit="10" stroke-linecap="round" stroke-linejoin="round"/>
<path d="M108.186 120.211C108.48 117.683 108.48 116.566 108.48 116.566C107.716 110.335 107.304 95.0516 121.467 94.2286C121.467 94.2286 129.106 91.407 133.925 98.99C136.922 103.693 137.803 108.63 137.745 112.804" stroke="#263238" stroke-miterlimit="10" stroke-linecap="round" stroke-linejoin="round"/>
<path d="M129.752 102.87C129.752 102.87 128.812 97.4029 123.229 95.8157" stroke="#263238" stroke-miterlimit="10" stroke-linecap="round" stroke-linejoin="round"/>
<path d="M133.043 99.519C133.043 99.519 136.569 104.927 135.453 111.863" stroke="#263238" stroke-miterlimit="10" stroke-linecap="round" stroke-linejoin="round"/>
<path d="M118.235 96.8738C118.235 96.8738 117.118 104.28 112.241 108.63" stroke="#263238" stroke-miterlimit="10" stroke-linecap="round" stroke-linejoin="round"/>
<path d="M114.297 99.1076C114.297 99.1076 109.008 103.987 108.127 110.747" stroke="#263238" stroke-miterlimit="10" stroke-linecap="round" stroke-linejoin="round"/>
<path d="M121.114 99.5191C121.114 99.5191 121.232 98.0495 121.114 96.8738" stroke="#263238" stroke-miterlimit="10" stroke-linecap="round" stroke-linejoin="round"/>
<path d="M108.245 144.488C108.245 144.488 109.89 148.074 108.95 151.13" stroke="#263238" stroke-miterlimit="10" stroke-linecap="round" stroke-linejoin="round"/>
<path d="M147.676 148.015C147.676 148.015 147.793 150.836 145.149 152.6" stroke="#263238" stroke-miterlimit="10" stroke-linecap="round" stroke-linejoin="round"/>
<path d="M149.145 165.885C149.145 165.885 152.73 163.945 156.726 164.885" stroke="#263238" stroke-miterlimit="10" stroke-linecap="round" stroke-linejoin="round"/>
<path d="M112.24 165.238C112.24 165.238 109.361 167.119 106.952 166.531" stroke="#263238" stroke-miterlimit="10" stroke-linecap="round" stroke-linejoin="round"/>
<path d="M85.7377 173.409H14.1035V203.506C14.1035 204.916 15.2788 206.092 16.6892 206.092H83.152C84.5624 206.092 85.7377 204.916 85.7377 203.506V173.409Z" fill="#263238" stroke="#263238" stroke-miterlimit="10" stroke-linecap="round" stroke-linejoin="round"/>
<path d="M85.7377 173.409H14.1035V86.4105C14.1035 84.9997 15.2788 83.8241 16.6892 83.8241H83.152C84.5624 83.8241 85.7377 84.9997 85.7377 86.4105V173.409Z" fill="white" stroke="#263238" stroke-miterlimit="10" stroke-linecap="round" stroke-linejoin="round"/>
<path d="M18.8045 155.186C18.8045 155.186 14.9848 161.358 14.1621 162.123V170L27.3842 162.593L28.7945 152.953C28.7358 152.894 20.92 152.717 18.8045 155.186Z" fill="white"/>
<path opacity="0.4" d="M18.8045 155.186C18.8045 155.186 14.9848 161.358 14.1621 162.123V170L27.3842 162.593L28.7945 152.953C28.7358 152.894 20.92 152.717 18.8045 155.186Z" fill="#FABE4C"/>
<path d="M18.8045 155.186C18.8045 155.186 14.9848 161.358 14.1621 162.123V170L27.3842 162.593L28.7945 152.953C28.7358 152.894 20.92 152.717 18.8045 155.186Z" stroke="#263238" stroke-miterlimit="10" stroke-linecap="round" stroke-linejoin="round"/>
<path d="M32.9672 130.556C26.6794 133.554 22.9185 144.958 19.9802 153.246C19.9802 153.246 18.6286 154.187 18.8049 155.186C18.8049 155.186 19.9215 154.305 23.2123 154.598C26.4443 154.892 29.9702 163.24 29.9702 163.24L38.7262 153.246" fill="#FABE4C"/>
<path opacity="0.15" d="M32.9672 130.556C26.6794 133.554 22.9185 144.958 19.9802 153.246C19.9802 153.246 18.6286 154.187 18.8049 155.186C18.8049 155.186 19.9215 154.305 23.2123 154.598C26.4443 154.892 29.9702 163.24 29.9702 163.24L38.7262 153.246" fill="black"/>
<path d="M32.9672 130.556C26.6794 133.554 22.9185 144.958 19.9802 153.246C19.9802 153.246 18.6286 154.187 18.8049 155.186C18.8049 155.186 19.9215 154.305 23.2123 154.598C26.4443 154.892 29.9702 163.24 29.9702 163.24L38.7262 153.246" stroke="#263238" stroke-miterlimit="10" stroke-linecap="round" stroke-linejoin="round"/>
<path d="M32.0859 132.026C32.3797 131.379 32.6735 130.85 32.9673 130.556C35.4942 128.029 54.4165 124.678 54.4165 124.678C54.4165 124.678 59.8228 125.148 67.1684 127.558C74.514 129.969 79.6265 131.085 81.1544 136.611C82.6823 142.137 79.6265 156.009 79.6265 156.009L78.2162 173.409H29.3239C29.3239 173.409 28.4424 156.538 27.8548 153.952C27.5022 152.482 28.4424 145.664 29.794 139.726" fill="#FABE4C"/>
<path opacity="0.15" d="M80.9192 149.132C80.3315 152.953 79.6851 156.009 79.6851 156.009L79.0975 163.533C76.9232 166.296 72.7509 171.058 67.9909 173.409H42.0169L32.7909 163.945L28.9712 167.531C28.6774 162.417 28.2072 155.539 27.8547 153.952C27.5608 152.776 28.0897 148.191 29.0299 143.43L51.9482 170.587L68.5786 159.83L77.8634 146.251L80.9192 149.132Z" fill="black"/>
<path d="M32.0859 132.026C32.3797 131.379 32.6735 130.85 32.9673 130.556C35.4942 128.029 54.4164 124.678 54.4164 124.678C54.4164 124.678 59.8228 125.148 67.1684 127.558C74.514 129.969 79.6265 131.085 81.1544 136.611C82.6823 142.137 79.6265 156.009 79.6265 156.009L78.2162 173.409H29.3239C29.3239 173.409 28.4424 156.538 27.8548 153.952C27.5022 152.482 28.4424 145.664 29.794 139.726" stroke="#263238" stroke-miterlimit="10" stroke-linecap="round" stroke-linejoin="round"/>
<path d="M46.4243 117.448C46.4243 117.448 49.5388 124.208 46.4243 127.088C46.4243 127.088 47.5996 131.908 49.6564 133.025C51.7719 134.142 62.3495 126.971 62.3495 126.971C62.3495 126.971 59.9402 119.74 61.1155 117.507H46.4243V117.448Z" fill="white" stroke="#263238" stroke-miterlimit="10" stroke-linecap="round" stroke-linejoin="round"/>
<path d="M64.4063 107.102C64.4063 107.102 65.5816 105.809 66.1693 106.22C66.7569 106.632 67.4621 107.866 67.1095 108.924C66.8157 110.041 65.4053 111.922 65.2878 113.039C65.1703 114.156 64.4651 115.39 63.7012 114.685C62.9372 113.98 64.4063 107.102 64.4063 107.102Z" fill="white" stroke="#263238" stroke-miterlimit="10" stroke-linecap="round" stroke-linejoin="round"/>
<path d="M43.2508 107.102C43.2508 107.102 42.0755 105.809 41.4879 106.22C40.9002 106.632 40.1951 107.866 40.5476 108.924C40.8415 110.041 42.2518 111.922 42.3694 113.039C42.4869 114.156 43.1921 115.39 43.956 114.685C44.7199 113.98 43.2508 107.102 43.2508 107.102Z" fill="white" stroke="#263238" stroke-miterlimit="10" stroke-linecap="round" stroke-linejoin="round"/>
<path d="M53.5348 92.1713C68.4611 92.1713 64.4063 110.218 61.7031 116.625C60.7629 118.859 56.003 122.033 53.5348 122.033C51.3018 122.033 46.7769 119.094 45.8954 116.978C43.1335 110.511 39.3138 92.1713 53.5348 92.1713Z" fill="white" stroke="#263238" stroke-miterlimit="10" stroke-linecap="round" stroke-linejoin="round"/>
<path d="M56.0615 104.457C56.0615 104.457 59.94 103.281 61.1741 105.632" stroke="#263238" stroke-miterlimit="10" stroke-linecap="round" stroke-linejoin="round"/>
<path d="M58.9411 107.69C58.9411 108.16 58.706 108.513 58.4122 108.513C58.1184 108.513 57.8833 108.16 57.8833 107.69C57.8833 107.22 58.1184 106.867 58.4122 106.867C58.706 106.867 58.9411 107.278 58.9411 107.69Z" fill="#263238"/>
<path d="M51.5368 104.457C51.5368 104.457 47.6584 103.281 46.4243 105.632" stroke="#263238" stroke-miterlimit="10" stroke-linecap="round" stroke-linejoin="round"/>
<path d="M48.6572 107.69C48.6572 108.16 48.8923 108.513 49.1861 108.513C49.4799 108.513 49.715 108.16 49.715 107.69C49.715 107.22 49.4799 106.867 49.1861 106.867C48.8923 106.867 48.6572 107.278 48.6572 107.69Z" fill="#263238"/>
<path d="M52.0655 111.099C51.4778 111.687 53.4758 112.686 53.8284 112.686C54.181 112.686 55.7089 111.922 55.7089 111.452" fill="white"/>
<path d="M52.0655 111.099C51.4778 111.687 53.4758 112.686 53.8284 112.686C54.181 112.686 55.7089 111.922 55.7089 111.452" stroke="#263238" stroke-miterlimit="10" stroke-linecap="round" stroke-linejoin="round"/>
<path d="M44.1323 108.924C44.1323 108.924 45.0138 112.922 45.4251 113.274C45.8365 113.627 47.2468 114.744 47.2468 114.744C47.2468 114.744 49.8913 113.451 50.4201 113.392C50.949 113.333 52.6532 113.686 54.0048 113.686C55.3564 113.686 56.3554 113.098 57.1781 113.509C57.942 113.921 60.0575 115.096 60.0575 115.096C60.0575 115.096 62.1143 113.392 62.2318 113.274C62.3494 113.157 63.5247 108.924 63.5247 108.924L63.936 109.277C63.936 109.277 63.4659 119.211 62.702 120.328C61.938 121.386 56.8255 124.443 53.8873 124.443C50.949 124.443 45.0138 121.386 44.7787 120.387C44.4261 119.446 43.7797 109.688 44.1323 108.924Z" fill="#263238"/>
<path d="M49.48 115.567C49.48 115.567 50.3027 116.272 50.714 116.155C51.1254 116.037 52.6533 115.861 53.6523 115.861C54.6513 115.861 55.709 116.096 56.473 116.155C57.2957 116.213 57.9421 115.861 57.9421 115.861" stroke="white" stroke-miterlimit="10" stroke-linecap="round" stroke-linejoin="round"/>
<path d="M59.7637 97.2266C59.7637 97.2266 54.4162 99.2252 48.2459 97.2266C48.2459 97.2266 46.2479 97.109 45.4252 98.1083C44.6024 99.1076 45.4252 102.223 45.6602 103.516C45.8953 104.81 43.8973 105.691 44.1911 108.866L43.8973 110.1C43.8973 110.1 41.723 104.574 42.2519 100.107C42.7807 95.6394 45.1901 94.1699 45.1901 94.1699C45.1901 94.1699 46.4829 90.349 54.0048 90.349C62.1143 90.4078 62.937 94.7577 62.937 94.7577C62.937 94.7577 67.9908 98.5786 63.936 110.511L63.5247 108.866C63.5247 108.866 63.936 106.455 62.5257 104.339C61.8205 103.281 62.937 100.224 62.702 98.6374C62.2906 97.109 59.7637 97.2266 59.7637 97.2266Z" fill="#263238"/>
<path d="M20.8615 159.948C20.8615 159.948 21.8605 153.834 22.8007 153.07C25.1513 151.013 25.0925 150.19 26.5616 149.426C28.4421 148.426 28.5596 146.251 28.5596 146.251C28.5596 146.251 31.0865 146.898 28.1483 150.66C27.6782 151.248 27.0318 152.306 26.6792 153.305C26.3853 154.069 28.3833 154.657 31.1453 153.952C34.5536 153.07 37.0218 157.89 32.9082 160.418C31.3216 161.417 28.8535 163.298 26.6204 165.708L21.6254 173.409H14.1035V165.179C14.1035 165.179 19.1573 162.475 20.8615 159.948Z" fill="white" stroke="#263238" stroke-miterlimit="10" stroke-linecap="round" stroke-linejoin="round"/>
<path d="M30.2637 161.358C30.2637 161.358 32.2617 159.948 33.6133 159.83L30.2637 161.358Z" fill="white"/>
<path d="M30.2637 161.358C30.2637 161.358 32.2617 159.948 33.6133 159.83" stroke="#263238" stroke-miterlimit="10" stroke-linecap="round" stroke-linejoin="round"/>
<path d="M30.2637 158.125C30.2637 158.125 31.6153 157.479 32.0854 157.009C32.5555 156.538 34.0834 154.775 34.0834 154.775" fill="white"/>
<path d="M30.2637 158.125C30.2637 158.125 31.6153 157.479 32.0854 157.009C32.5555 156.538 34.0834 154.775 34.0834 154.775" stroke="#263238" stroke-miterlimit="10" stroke-linecap="round" stroke-linejoin="round"/>
<path d="M29.2652 133.084C28.2662 132.79 25.4455 133.084 24.6816 132.79C23.9177 132.555 23.0362 133.202 23.5651 134.554C24.1527 135.906 28.1487 135.964 28.1487 135.964L29.2652 133.084Z" fill="white" stroke="#263238" stroke-miterlimit="10" stroke-linecap="round" stroke-linejoin="round"/>
<path d="M25.5628 134.201C25.5628 134.201 22.4483 133.789 21.6843 134.025C21.3905 134.083 20.6853 136.082 21.0379 138.022C21.3317 139.962 24.6813 140.138 24.6813 140.138L25.5628 134.201Z" fill="white" stroke="#263238" stroke-miterlimit="10" stroke-linecap="round" stroke-linejoin="round"/>
<path d="M21.7432 135.964C21.7432 135.964 22.0958 136.846 23.3298 136.729" stroke="#263238" stroke-miterlimit="10" stroke-linecap="round" stroke-linejoin="round"/>
<path d="M22.4485 137.14C22.4485 137.14 19.9216 138.433 19.6865 139.491C19.4515 140.608 20.2154 142.313 20.2154 142.313L23.2712 142.137L22.4485 137.14Z" fill="white" stroke="#263238" stroke-miterlimit="10" stroke-linecap="round" stroke-linejoin="round"/>
<path d="M21.2143 141.314C21.2143 141.314 19.8627 142.607 19.5101 143.136C19.1575 143.606 20.8029 146.545 21.2143 146.957C21.5669 147.368 24.9165 147.603 24.9165 147.603C24.9165 147.603 22.9185 142.195 21.2143 141.314Z" fill="white" stroke="#263238" stroke-miterlimit="10" stroke-linecap="round" stroke-linejoin="round"/>
<path d="M21.7432 146.134C21.7432 146.134 23.3886 145.84 23.1535 144.429" stroke="#263238" stroke-miterlimit="10" stroke-linecap="round" stroke-linejoin="round"/>
<path d="M22.2133 145.252C23.9763 146.78 26.8557 149.249 28.3836 149.955C30.3816 150.895 37.9623 166.414 45.6017 173.409H67.1683C67.1683 173.409 72.0458 166.825 73.8088 163.004C75.5717 159.184 78.6275 148.544 78.6275 148.544L70.4004 146.134L62.2909 155.48L56.7082 164.415C56.7082 164.415 36.9045 148.485 34.5539 143.547C32.2033 138.61 30.3816 133.084 29.2063 133.084C27.8547 133.084 28.2073 134.142 25.5042 134.201C24.2113 134.201 24.1526 135.729 23.036 136.67C21.9195 137.61 21.0968 137.14 21.2731 140.255C21.3906 142.313 19.5689 142.137 20.6854 143.841" fill="white"/>
<path d="M22.2133 145.252C23.9763 146.78 26.8557 149.249 28.3836 149.955C30.3816 150.895 37.9623 166.414 45.6017 173.409H67.1683C67.1683 173.409 72.0458 166.825 73.8088 163.004C75.5717 159.184 78.6275 148.544 78.6275 148.544L70.4004 146.134L62.2909 155.48L56.7082 164.415C56.7082 164.415 36.9045 148.485 34.5539 143.547C32.2033 138.61 30.3816 133.084 29.2063 133.084C27.8547 133.084 28.2073 134.142 25.5042 134.201C24.2113 134.201 24.1526 135.729 23.036 136.67C21.9195 137.61 21.0968 137.14 21.2731 140.255C21.3906 142.313 19.5689 142.137 20.6854 143.841" stroke="#263238" stroke-miterlimit="10" stroke-linecap="round" stroke-linejoin="round"/>
<path d="M69.1663 133.084C66.9332 134.377 64.0538 145.252 64.3476 147.662C64.6414 150.072 61.233 154.892 61.8207 156.127C61.8207 156.127 66.4631 155.715 69.1663 156.95C71.8695 158.243 74.1025 161.888 73.6912 163.886C73.6912 163.886 75.1015 163.886 75.1015 163.181C75.1015 162.475 80.3316 155.539 82.4471 150.601C84.5626 145.664 85.0328 135.2 78.0985 132.026" fill="#FABE4C"/>
<path d="M69.1663 133.084C66.9332 134.377 64.0538 145.252 64.3476 147.662C64.6414 150.072 61.233 154.892 61.8207 156.127C61.8207 156.127 66.4631 155.715 69.1663 156.95C71.8695 158.243 74.1025 161.888 73.6912 163.886C73.6912 163.886 75.1015 163.886 75.1015 163.181C75.1015 162.475 80.3316 155.539 82.4471 150.601C84.5626 145.664 85.0328 135.2 78.0985 132.026" stroke="#263238" stroke-miterlimit="10" stroke-linecap="round" stroke-linejoin="round"/>
<path d="M28.0898 151.248C28.0898 151.248 28.9713 148.544 32.4972 145.899C34.7303 144.194 35.7293 144.605 35.7293 144.605L37.551 147.251L37.3159 147.662C37.3159 147.662 36.1406 147.956 34.4364 149.426C31.792 151.659 30.9693 153.599 30.9693 153.599H30.2054L28.0898 151.248Z" fill="#757575" stroke="#263238" stroke-miterlimit="10" stroke-linecap="round" stroke-linejoin="round"/>
<path d="M36.1405 147.603C36.1405 149.014 34.9652 150.19 33.5549 150.19C32.1445 150.19 30.9692 149.014 30.9692 147.603C30.9692 146.193 32.1445 145.017 33.5549 145.017C34.9652 145.017 36.1405 146.193 36.1405 147.603Z" fill="white" stroke="#263238" stroke-miterlimit="10" stroke-linecap="round" stroke-linejoin="round"/>
<path d="M62.4079 140.138C62.4079 140.138 61.9377 146.369 63.5244 148.897" stroke="#263238" stroke-miterlimit="10" stroke-linecap="round" stroke-linejoin="round"/>
<path d="M45.6602 134.377C45.6602 134.377 48.5396 136.493 54.7099 133.084" stroke="#263238" stroke-miterlimit="10" stroke-linecap="round" stroke-linejoin="round"/>
<path d="M32.144 165.885C32.144 165.885 37.7855 172.175 40.3711 173.468" stroke="#263238" stroke-miterlimit="10" stroke-linecap="round" stroke-linejoin="round"/>
<path d="M47.717 178.934H20.3327C19.745 178.934 19.2749 179.405 19.2749 179.993C19.2749 180.58 19.745 181.051 20.3327 181.051H47.717C48.3047 181.051 48.7748 180.58 48.7748 179.993C48.7748 179.405 48.3047 178.934 47.717 178.934Z" fill="white"/>
<path d="M79.9789 187.752H19.8625C19.51 187.752 19.2749 188.046 19.2749 188.34C19.2749 188.692 19.5687 188.927 19.8625 188.927H79.9789C80.3315 188.927 80.5665 188.634 80.5665 188.34C80.5665 188.046 80.3315 187.752 79.9789 187.752Z" fill="white"/>
<path d="M68.9311 190.75H19.8625C19.51 190.75 19.2749 191.044 19.2749 191.338C19.2749 191.69 19.5687 191.925 19.8625 191.925H68.9311C69.2837 191.925 69.5187 191.632 69.5187 191.338C69.5187 191.044 69.2249 190.75 68.9311 190.75Z" fill="white"/>
<path d="M35.6703 182.99H19.8625C19.51 182.99 19.2749 183.284 19.2749 183.578C19.2749 183.931 19.5687 184.166 19.8625 184.166H35.6703C36.0228 184.166 36.2579 183.872 36.2579 183.578C36.3167 183.284 36.0228 182.99 35.6703 182.99Z" fill="white"/>
<path d="M78.5097 200.096H79.9788C80.3314 200.096 80.6252 199.802 80.6252 199.45V197.98C80.6252 197.627 80.3314 197.333 79.9788 197.333H78.5097C78.1571 197.333 77.8633 197.627 77.8633 197.98V199.45C77.8633 199.802 78.1571 200.096 78.5097 200.096Z" fill="white"/>
<path d="M72.9858 200.096H74.4549C74.8075 200.096 75.1013 199.802 75.1013 199.45V197.98C75.1013 197.627 74.8075 197.333 74.4549 197.333H72.9858C72.6332 197.333 72.3394 197.627 72.3394 197.98V199.45C72.3394 199.802 72.6332 200.096 72.9858 200.096Z" fill="white"/>
<path d="M67.4618 200.096H68.931C69.2835 200.096 69.5774 199.802 69.5774 199.45V197.98C69.5774 197.627 69.2835 197.333 68.931 197.333H67.4618C67.1093 197.333 66.8154 197.627 66.8154 197.98V199.45C66.8154 199.802 67.1093 200.096 67.4618 200.096Z" fill="white"/>
</g>
<defs>
<clipPath id="clip0">
<rect width="254.804" height="254" fill="white"/>
</clipPath>
</defs>
</svg>
