<svg width="40" height="169" viewBox="0 0 40 169" fill="none" xmlns="http://www.w3.org/2000/svg">
<path d="M38.8 19.9C38.8 30.3382 30.3382 38.8 19.9 38.8C9.46182 38.8 1 30.3382 1 19.9C1 9.46182 9.46182 1 19.9 1C30.3382 1 38.8 9.46182 38.8 19.9Z" stroke="#29728F" stroke-width="2"/>
<rect x="19.3931" y="40.7867" width="1" height="127.213" fill="#29728F" stroke="#29728F"/>
<path d="M14.814 25.558C19.786 22.1113 22.272 19.2513 22.272 16.978C22.272 16.2887 22.1033 15.746 21.766 15.35C21.4433 14.954 20.93 14.756 20.226 14.756C18.774 14.756 18.004 15.746 17.916 17.726H14.902C14.99 15.8927 15.5473 14.5067 16.574 13.568C17.6007 12.6147 18.8987 12.138 20.468 12.138C22.0667 12.138 23.2913 12.556 24.142 13.392C25.0073 14.2133 25.44 15.3133 25.44 16.692C25.44 17.7773 25.1173 18.87 24.472 19.97C23.8413 21.0553 23.0347 22.06 22.052 22.984C21.0693 23.8933 20.0353 24.678 18.95 25.338H25.748V27.868H14.814V25.558Z" fill="#29728F"/>
</svg>
