<svg width="40" height="169" viewBox="0 0 40 169" fill="none" xmlns="http://www.w3.org/2000/svg">
<path d="M38.8 19.9C38.8 30.3382 30.3382 38.8 19.9 38.8C9.46182 38.8 1 30.3382 1 19.9C1 9.46182 9.46182 1 19.9 1C30.3382 1 38.8 9.46182 38.8 19.9Z" stroke="#29728F" stroke-width="2"/>
<rect x="19.3931" y="40.7866" width="1" height="127.213" fill="#29728F" stroke="#29728F"/>
<path d="M23.946 14.624H16.818V18.386C17.126 18.0047 17.566 17.6967 18.138 17.462C18.71 17.2127 19.3187 17.088 19.964 17.088C21.1373 17.088 22.098 17.3447 22.846 17.858C23.594 18.3713 24.1367 19.0313 24.474 19.838C24.8113 20.63 24.98 21.4807 24.98 22.39C24.98 24.0767 24.496 25.4333 23.528 26.46C22.5747 27.4867 21.2107 28 19.436 28C17.764 28 16.4293 27.582 15.432 26.746C14.4347 25.91 13.87 24.8173 13.738 23.468H16.73C16.862 24.0547 17.1553 24.524 17.61 24.876C18.0793 25.228 18.6733 25.404 19.392 25.404C20.2573 25.404 20.91 25.1327 21.35 24.59C21.79 24.0473 22.01 23.3287 22.01 22.434C22.01 21.5247 21.7827 20.8353 21.328 20.366C20.888 19.882 20.2353 19.64 19.37 19.64C18.754 19.64 18.2407 19.794 17.83 20.102C17.4193 20.41 17.126 20.8207 16.95 21.334H14.002V11.918H23.946V14.624Z" fill="#29728F"/>
</svg>
