<svg width="40" height="169" viewBox="0 0 40 169" fill="none" xmlns="http://www.w3.org/2000/svg">
<path d="M38.8 148.9C38.8 159.338 30.3382 167.8 19.9 167.8C9.46182 167.8 1 159.338 1 148.9C1 138.462 9.46182 130 19.9 130C30.3382 130 38.8 138.462 38.8 148.9Z" stroke="#29728F" stroke-width="2"/>
<rect x="18.3931" y="0.786621" width="1" height="127.213" fill="#29728F" stroke="#29728F"/>
<path d="M14.21 145.186C14.2833 143.719 14.7967 142.59 15.75 141.798C16.718 140.991 17.9867 140.588 19.556 140.588C20.6267 140.588 21.5433 140.779 22.306 141.16C23.0687 141.527 23.6407 142.033 24.022 142.678C24.418 143.309 24.616 144.027 24.616 144.834C24.616 145.758 24.374 146.543 23.89 147.188C23.4207 147.819 22.856 148.244 22.196 148.464V148.552C23.0467 148.816 23.7067 149.285 24.176 149.96C24.66 150.635 24.902 151.5 24.902 152.556C24.902 153.436 24.6967 154.221 24.286 154.91C23.89 155.599 23.296 156.142 22.504 156.538C21.7267 156.919 20.788 157.11 19.688 157.11C18.0307 157.11 16.6813 156.692 15.64 155.856C14.5987 155.02 14.0487 153.788 13.99 152.16H16.982C17.0113 152.879 17.2533 153.458 17.708 153.898C18.1773 154.323 18.8153 154.536 19.622 154.536C20.37 154.536 20.942 154.331 21.338 153.92C21.7487 153.495 21.954 152.952 21.954 152.292C21.954 151.412 21.6753 150.781 21.118 150.4C20.5607 150.019 19.6953 149.828 18.522 149.828H17.884V147.298H18.522C20.6047 147.298 21.646 146.601 21.646 145.208C21.646 144.577 21.4553 144.086 21.074 143.734C20.7073 143.382 20.172 143.206 19.468 143.206C18.7787 143.206 18.2433 143.397 17.862 143.778C17.4953 144.145 17.2827 144.614 17.224 145.186H14.21Z" fill="#29728F"/>
</svg>
