<?xml version="1.0"?>
<svg xmlns="http://www.w3.org/2000/svg" id="Outline" viewBox="0 0 512 512" width="512" height="512"><path d="M472,24H40A24.028,24.028,0,0,0,16,48V464a24.028,24.028,0,0,0,24,24H472a24.028,24.028,0,0,0,24-24V48A24.028,24.028,0,0,0,472,24ZM40,40H472a8.009,8.009,0,0,1,8,8V88H32V48A8.009,8.009,0,0,1,40,40ZM472,472H40a8.009,8.009,0,0,1-8-8V104H480V464A8.009,8.009,0,0,1,472,472Z"/><circle cx="120" cy="64" r="8"/><circle cx="88" cy="64" r="8"/><circle cx="56" cy="64" r="8"/><path d="M440,136H72a8,8,0,0,0-8,8V272a8,8,0,0,0,8,8H440a8,8,0,0,0,8-8V144A8,8,0,0,0,440,136Zm-8,128H408V208a8,8,0,0,0-16,0v56H376V240a8,8,0,0,0-16,0v24H344V224a8,8,0,0,0-16,0v40H312V240a8,8,0,0,0-16,0v24H280V208a8,8,0,0,0-16,0v56H248V192a8,8,0,0,0-16,0v72H216V208a8,8,0,0,0-16,0v56H184V224a8,8,0,0,0-16,0v40H152V208a8,8,0,0,0-16,0v56H120V240a8,8,0,0,0-16,0v24H80V152H432Z"/><path d="M128,312a64,64,0,1,0,64,64A64.072,64.072,0,0,0,128,312Zm47.321,56H158.987A32.117,32.117,0,0,0,136,345.013V328.679A48.109,48.109,0,0,1,175.321,368ZM128,360a16,16,0,1,1-16,16A16.019,16.019,0,0,1,128,360Zm0,64a48,48,0,0,1-8-95.321v16.334A32,32,0,1,0,158.987,384h16.334A48.07,48.07,0,0,1,128,424Z"/><path d="M360,400h32a8,8,0,0,0,0-16H360a8,8,0,0,0,0,16Z"/><path d="M440,416H360a8,8,0,0,0,0,16h80a8,8,0,0,0,0-16Z"/><path d="M360,336h32a8,8,0,0,0,0-16H360a8,8,0,0,0,0,16Z"/><path d="M440,352H360a8,8,0,0,0,0,16h80a8,8,0,0,0,0-16Z"/><path d="M232,400h32a8,8,0,0,0,0-16H232a8,8,0,0,0,0,16Z"/><path d="M312,416H232a8,8,0,0,0,0,16h80a8,8,0,0,0,0-16Z"/><path d="M232,336h32a8,8,0,0,0,0-16H232a8,8,0,0,0,0,16Z"/><path d="M312,352H232a8,8,0,0,0,0,16h80a8,8,0,0,0,0-16Z"/></svg>
