<?xml version="1.0"?>
<svg xmlns="http://www.w3.org/2000/svg" id="Outline" viewBox="0 0 512 512" width="512" height="512"><path d="M472,24H40A24.028,24.028,0,0,0,16,48V464a24.028,24.028,0,0,0,24,24H472a24.028,24.028,0,0,0,24-24V48A24.028,24.028,0,0,0,472,24ZM40,40H472a8.009,8.009,0,0,1,8,8V88H32V48A8.009,8.009,0,0,1,40,40ZM472,472H40a8.009,8.009,0,0,1-8-8V104H480V464A8.009,8.009,0,0,1,472,472Z"/><circle cx="120" cy="64" r="8"/><circle cx="88" cy="64" r="8"/><circle cx="56" cy="64" r="8"/><path d="M232,144H72a8,8,0,0,0-8,8V264a8,8,0,0,0,8,8H232a8,8,0,0,0,8-8V152A8,8,0,0,0,232,144Zm-8,16v84.686l-34.343-34.343a8,8,0,0,0-11.314,0l-23.192,23.191L126.4,195.2a8,8,0,0,0-12.8,0L80,240V160Zm-72,96H88l32-42.667Zm12.849-9.535L184,227.313,212.686,256H172Z"/><path d="M440,144H280a8,8,0,0,0-8,8V264a8,8,0,0,0,8,8H440a8,8,0,0,0,8-8V152A8,8,0,0,0,440,144Zm-8,16v84.686l-34.343-34.343a8,8,0,0,0-11.314,0l-23.192,23.191L334.4,195.2a8,8,0,0,0-12.8,0L288,240V160Zm-72,96H296l32-42.667Zm12.849-9.535L392,227.313,420.686,256H380Z"/><circle cx="160" cy="184" r="8"/><circle cx="368" cy="184" r="8"/><path d="M232,304H72a8,8,0,0,0-8,8V424a8,8,0,0,0,8,8H232a8,8,0,0,0,8-8V312A8,8,0,0,0,232,304Zm-8,16v84.686l-34.343-34.343a8,8,0,0,0-11.314,0l-23.192,23.191L126.4,355.2a8,8,0,0,0-12.8,0L80,400V320Zm-72,96H88l32-42.667Zm12.849-9.535L184,387.313,212.686,416H172Z"/><path d="M440,304H280a8,8,0,0,0-8,8V424a8,8,0,0,0,8,8H440a8,8,0,0,0,8-8V312A8,8,0,0,0,440,304Zm-8,16v84.686l-34.343-34.343a8,8,0,0,0-11.314,0l-23.192,23.191L334.4,355.2a8,8,0,0,0-12.8,0L288,400V320Zm-72,96H296l32-42.667Zm12.849-9.535L392,387.313,420.686,416H380Z"/><circle cx="160" cy="344" r="8"/><circle cx="368" cy="344" r="8"/></svg>
