<?xml version="1.0" encoding="iso-8859-1"?>
<!-- Generator: Adobe Illustrator 19.0.0, SVG Export Plug-In . SVG Version: 6.00 Build 0)  -->
<svg version="1.1" id="Layer_1" xmlns="http://www.w3.org/2000/svg" xmlns:xlink="http://www.w3.org/1999/xlink" x="0px" y="0px"
	 viewBox="0 0 512 512" style="enable-background:new 0 0 512 512;" xml:space="preserve">
<g>
	<g>
		<path d="M382.049,333.064l-79.523-68.172l76.797-76.798l23.093-78.51l-78.509,23.091l-71.369,71.37l11.083,11.082l58.874-58.874
			l0.001,0.001c3.056-3.055,8.028-3.056,11.083-0.001c3.056,3.055,3.056,8.027,0,11.083v-0.001l-66.858,66.859l-64.211-55.046
			c6.548-15.762,2.999-33.444-10.674-47.117c-13.924-13.924-50.61-20.677-64.844-16.864c-6.522,1.747-8.802,5.514-9.567,8.367
			c-0.768,2.868-0.66,7.312,4.219,12.192c13.063,13.063,9.818,19.975,5.327,29.541c-3.499,7.453-8.789,18.718,2.062,29.567
			c9.244,9.244,20.323,13.867,31.401,13.867c5.307,0,10.611-1.072,15.716-3.193l34.582,40.34l-100.66,100.66l55.417,55.417
			l87.566-87.566l-11.082-11.082l-28.457,28.457l-33.252-33.252l40.699-40.7l10.233,11.937l-30.611,30.611l11.082,11.082
			l29.76-29.76l88.636,103.395c6.662,7.771,16.349,12.453,26.578,12.845c0.467,0.019,0.933,0.027,1.4,0.027
			c9.736,0,19.176-3.891,26.083-10.798c7.237-7.238,11.163-17.255,10.771-27.483C394.501,349.413,389.82,339.726,382.049,333.064z
			 M165.491,379.761l-33.252-33.252l18.473-18.473l33.252,33.252L165.491,379.761z M202.435,342.817l-7.388,7.388l-33.252-33.252
			l7.388-7.388L202.435,342.817z M379.272,132.728l-10.74,36.517c-0.529-0.657-1.092-1.298-1.702-1.908
			c-4.139-4.138-9.552-6.516-15.353-6.824c-0.303-5.585-2.557-11.084-6.814-15.342c-0.61-0.61-1.25-1.173-1.908-1.702
			L379.272,132.728z M344.664,178.42c1.48-1.481,3.448-2.296,5.541-2.296s4.062,0.815,5.541,2.296c3.055,3.055,3.055,8.027,0,11.082
			l0.001,0.002l-65.155,65.155l-11.936-10.232L344.664,178.42z M140.117,183.753c-2.644-2.644-2.789-3.662,1.043-11.823
			c4.533-9.654,11.19-23.834-3.805-42.193c12.061,0.254,34.96,4.94,43.399,13.379c12.343,12.343,12.343,28.294,0,40.637
			C168.411,196.095,152.46,196.096,140.117,183.753z M224.667,238.019l-35.154-41.007c0.785-0.699,1.562-1.416,2.324-2.178
			c0.762-0.762,1.48-1.539,2.179-2.325l41.005,35.152C232.4,231.847,228.846,235.402,224.667,238.019z M373.04,376.04
			c-4.221,4.221-9.849,6.417-15.798,6.192c-5.966-0.229-11.393-2.852-15.279-7.384L234.938,250.002
			c4.695-3.274,8.789-7.369,12.063-12.066l124.847,107.027c4.534,3.886,7.155,9.312,7.384,15.279
			C379.461,366.208,377.261,371.819,373.04,376.04z"/>
	</g>
</g>
<g>
	<g>
		<path d="M496.327,45.672C505.447,42.437,512,33.726,512,23.51C512,10.546,501.453,0,488.49,0s-23.51,10.546-23.51,23.51
			c0,10.216,6.553,18.927,15.673,22.162v124.903c-11.96-31.443-30.504-60.297-54.717-84.512
			c-39.449-39.449-91.205-63.858-146.426-69.236V0h-47.02v16.827c-55.221,5.379-106.977,29.787-146.425,69.236
			c-24.214,24.216-42.758,53.069-54.718,84.512V45.672C40.468,42.437,47.02,33.727,47.02,23.51C47.02,10.546,36.474,0,23.51,0
			S0,10.546,0,23.51c0,10.217,6.553,18.927,15.673,22.162V232.49H0v47.02h15.673v186.817C6.553,469.563,0,478.274,0,488.49
			C0,501.454,10.546,512,23.51,512s23.51-10.546,23.51-23.51c0-10.216-6.553-18.927-15.674-22.162V341.425
			c11.96,31.443,30.504,60.297,54.718,84.512c39.448,39.449,91.204,63.858,146.425,69.236V512h47.02v-16.836
			c55.22-5.374,106.977-29.779,146.427-69.228c24.211-24.21,42.754-53.06,54.716-84.497v124.888
			c-9.121,3.235-15.673,11.946-15.673,22.162c0,12.964,10.547,23.51,23.51,23.51S512,501.454,512,488.49
			c0-10.216-6.553-18.927-15.673-22.162V279.51H512v-47.02h-15.673V45.672z M23.51,15.673c4.322,0,7.837,3.515,7.837,7.837
			c0,4.322-3.515,7.837-7.837,7.837c-4.322,0-7.837-3.515-7.837-7.837C15.673,19.189,19.189,15.673,23.51,15.673z M23.51,496.327
			c-4.322,0-7.837-3.515-7.837-7.837c0-4.322,3.515-7.837,7.837-7.837c4.322,0,7.837,3.515,7.837,7.837
			C31.347,492.811,27.832,496.327,23.51,496.327z M31.347,263.837H15.673v-15.673h15.673V263.837z M248.163,15.673h15.673v15.673
			h-15.673V15.673z M263.837,496.327h-15.673v-15.673h15.673V496.327z M414.854,414.853c-36.516,36.514-84.305,59.24-135.344,64.559
			V464.98h-47.02v14.442c-51.04-5.324-98.829-28.052-135.342-64.567c-36.514-36.515-59.241-84.304-64.559-135.344H47.02v-47.02
			H32.588c5.32-51.039,28.045-98.828,64.559-135.344c36.514-36.515,84.302-59.244,135.342-64.567V47.02h47.02V32.579
			c51.04,5.324,98.828,28.052,135.341,64.567c36.514,36.516,59.24,84.306,64.56,135.344H464.98v47.02h14.442
			C474.097,330.55,451.369,378.339,414.854,414.853z M488.49,15.673c4.322,0,7.837,3.515,7.837,7.837
			c0,4.322-3.515,7.837-7.837,7.837c-4.322,0-7.837-3.515-7.837-7.837C480.653,19.189,484.168,15.673,488.49,15.673z
			 M488.49,496.327c-4.322,0-7.837-3.515-7.837-7.837c0-4.322,3.515-7.837,7.837-7.837c4.322,0,7.837,3.515,7.837,7.837
			C496.327,492.811,492.811,496.327,488.49,496.327z M496.327,263.837h-15.673v-15.673h15.673V263.837z"/>
	</g>
</g>
<g>
</g>
<g>
</g>
<g>
</g>
<g>
</g>
<g>
</g>
<g>
</g>
<g>
</g>
<g>
</g>
<g>
</g>
<g>
</g>
<g>
</g>
<g>
</g>
<g>
</g>
<g>
</g>
<g>
</g>
</svg>
