<svg width="72" height="382" viewBox="0 0 72 382" fill="none" xmlns="http://www.w3.org/2000/svg">
<path d="M28.9117 370H2V368.839H28.9117C44.3463 368.839 57.0106 353.977 57.0106 335.865V44.903C57.0106 26.7904 44.3463 11.9288 28.9117 11.9288H2V11H28.9117C44.9399 11 58 26.326 58 45.1352V336.097C57.8021 354.674 44.7421 370 28.9117 370Z" fill="#1B1B1B" stroke="black"/>
<path d="M57.0054 184.953H2.88184V185.926H57.0054V184.953Z" fill="#1B1B1B" stroke="black"/>
<path d="M57.979 199.745C65.7207 199.745 71.9966 193.471 71.9966 185.732C71.9966 177.993 65.7207 171.719 57.979 171.719C50.2373 171.719 43.9614 177.993 43.9614 185.732C43.9614 193.471 50.2373 199.745 57.979 199.745Z" fill="#FFE173"/>
<path d="M64.0146 185.732C64.0146 189.04 61.2889 191.765 57.9792 191.765C54.6695 191.765 51.9438 189.04 51.9438 185.732C51.9438 182.423 54.6695 179.698 57.9792 179.698C61.2889 179.698 64.0146 182.423 64.0146 185.732Z" fill="white"/>
<path d="M11.4484 22.0526L1.12988 11.7376L11.4484 1.42255L12.0324 2.20104L2.4927 11.7376L12.0324 21.4687L11.4484 22.0526Z" fill="#1B1B1B" stroke="black"/>
<path d="M11.4484 195.463L1.12988 185.148L11.4484 174.833L12.0324 175.611L2.4927 185.148L12.0324 194.879L11.4484 195.463Z" fill="#1B1B1B" stroke="black"/>
<path d="M11.4484 380.383L1.12988 370.068L11.4484 359.947L12.0324 360.531L2.4927 370.068L12.0324 379.799L11.4484 380.383Z" fill="#1B1B1B" stroke="black"/>
</svg>
