<svg width="96" height="507" viewBox="0 0 96 507" fill="none" xmlns="http://www.w3.org/2000/svg">
<path d="M57.7809 14.6667L93.6631 14.6667L93.6631 16.2148L57.7809 16.2147C37.2014 16.2147 20.3157 36.0302 20.3157 60.1803L20.3156 448.129C20.3156 472.279 37.2014 492.095 57.7809 492.095L93.6631 492.095L93.6631 493.333L57.7809 493.333C36.4098 493.333 18.9964 472.899 18.9964 447.82L18.9965 59.8706C19.2603 35.1013 36.6737 14.6667 57.7809 14.6667Z" fill="#1B1B1B" stroke="black"/>
<path d="M20.3226 261.396L92.4873 261.396L92.4873 260.098L20.3226 260.098L20.3226 261.396Z" fill="#1B1B1B" stroke="black"/>
<path d="M19.0247 241.674C8.70245 241.674 0.334597 250.039 0.334596 260.358C0.334595 270.677 8.70244 279.042 19.0247 279.042C29.347 279.042 37.7148 270.677 37.7148 260.358C37.7148 250.039 29.347 241.674 19.0247 241.674Z" fill="#FFE173"/>
<path d="M10.977 260.358C10.977 255.946 14.6112 252.313 19.0241 252.313C23.4371 252.313 27.0713 255.946 27.0713 260.358C27.0713 264.769 23.4371 268.402 19.0241 268.402C14.6112 268.402 10.977 264.769 10.977 260.358Z" fill="white"/>
<path d="M81.0652 478.597L94.8232 492.35L81.0652 506.103L80.2865 505.065L93.0062 492.35L80.2865 479.375L81.0652 478.597Z" fill="#1B1B1B" stroke="black"/>
<path d="M81.0652 247.383L94.8232 261.136L81.0652 274.89L80.2865 273.852L93.0062 261.136L80.2865 248.161L81.0652 247.383Z" fill="#1B1B1B" stroke="black"/>
<path d="M81.0652 0.822926L94.8232 14.5763L81.0652 28.0702L80.2865 27.2917L93.0062 14.5763L80.2865 1.60143L81.0652 0.822926Z" fill="#1B1B1B" stroke="black"/>
</svg>
