<svg width="22" height="339" viewBox="0 0 22 339" fill="none" xmlns="http://www.w3.org/2000/svg">
<path d="M11.4866 13.8989H10.5132V324.906H11.4866V13.8989Z" fill="#1B1B1B" stroke="black"/>
<path d="M21.8052 10.8989C21.8052 16.9322 16.9379 21.7978 10.9026 21.7978C4.86722 21.7978 0 16.9322 0 10.8989C0 4.86558 4.86722 0 10.9026 0C16.9379 0 21.8052 4.86558 21.8052 10.8989Z" fill="#FFE173"/>
<path d="M21.8052 167.899C21.8052 173.932 16.9379 178.798 10.9026 178.798C4.86722 178.798 0 173.932 0 167.899C0 161.866 4.86722 157 10.9026 157C16.9379 157 21.8052 161.866 21.8052 167.899Z" fill="#FFE173"/>
<path d="M21.8052 327.899C21.8052 333.932 16.9379 338.798 10.9026 338.798C4.86722 338.798 0 333.932 0 327.899C0 321.866 4.86722 317 10.9026 317C16.9379 317 21.8052 321.866 21.8052 327.899Z" fill="#FFE173"/>
<path d="M10.9029 15.7311C13.591 15.7311 15.7701 13.5527 15.7701 10.8656C15.7701 8.17838 13.591 5.99998 10.9029 5.99998C8.21477 5.99998 6.03564 8.17838 6.03564 10.8656C6.03564 13.5527 8.21477 15.7311 10.9029 15.7311Z" fill="white"/>
<path d="M10.9029 172.731C13.591 172.731 15.7701 170.553 15.7701 167.866C15.7701 165.178 13.591 163 10.9029 163C8.21477 163 6.03564 165.178 6.03564 167.866C6.03564 170.553 8.21477 172.731 10.9029 172.731Z" fill="white"/>
<path d="M15.7701 327.866C15.7701 330.59 13.6285 332.731 10.9029 332.731C8.17722 332.731 6.03564 330.59 6.03564 327.866C6.03564 325.141 8.17722 323 10.9029 323C13.6285 323.195 15.7701 325.335 15.7701 327.866Z" fill="white"/>
</svg>
